<svg xmlns="http://www.w3.org/2000/svg" width="1200" height="460" viewBox="0 0 1200 460" role="img" aria-labelledby="title desc">
  <title id="title">Calculadora de lucro na pecuária AgroComm</title>
  <desc id="desc">Banner promocional da ferramenta para comparar custos, receitas, margens e projeções na pecuária.</desc>
  <defs>
    <linearGradient id="bg" x1="0" y1="0" x2="1" y2="1">
      <stop offset="0" stop-color="#111511"/>
      <stop offset="0.55" stop-color="#1b2418"/>
      <stop offset="1" stop-color="#394634"/>
    </linearGradient>
    <radialGradient id="glow" cx="78%" cy="20%" r="65%">
      <stop offset="0" stop-color="#4ade80" stop-opacity=".22"/>
      <stop offset="1" stop-color="#4ade80" stop-opacity="0"/>
    </radialGradient>
    <linearGradient id="button" x1="0" y1="0" x2="1" y2="1">
      <stop offset="0" stop-color="#68e596"/>
      <stop offset="1" stop-color="#35c96e"/>
    </linearGradient>
    <filter id="shadow" x="-30%" y="-30%" width="160%" height="160%">
      <feDropShadow dx="0" dy="18" stdDeviation="24" flood-color="#000" flood-opacity=".28"/>
    </filter>
    <filter id="soft" x="-20%" y="-20%" width="140%" height="140%">
      <feGaussianBlur stdDeviation="35"/>
    </filter>
    <clipPath id="cardClip"><rect x="692" y="52" width="452" height="356" rx="30"/></clipPath>
  </defs>

  <rect width="1200" height="460" rx="28" fill="url(#bg)"/>
  <rect width="1200" height="460" rx="28" fill="url(#glow)"/>
  <circle cx="1090" cy="-18" r="190" fill="#4ade80" opacity=".08" filter="url(#soft)"/>
  <circle cx="75" cy="470" r="230" fill="#f2d041" opacity=".04" filter="url(#soft)"/>

  <g transform="translate(54 38)">
    <rect width="56" height="56" rx="16" fill="#ffffff" fill-opacity=".06" stroke="#ffffff" stroke-opacity=".1"/>
    <text x="70" y="37" font-family="Nunito, Arial, sans-serif" font-size="27" font-weight="800" fill="#fff">AgroComm</text>
  </g>

  <g transform="translate(54 122)">
    <rect width="228" height="36" rx="18" fill="#4ade80" fill-opacity=".1" stroke="#4ade80" stroke-opacity=".28"/>
    <circle cx="20" cy="18" r="5" fill="#4ade80"/>
    <text x="34" y="24" font-family="Nunito, Arial, sans-serif" font-size="14" font-weight="800" letter-spacing="1.2" fill="#69e696">NOVA FERRAMENTA</text>
  </g>

  <text x="54" y="214" font-family="Nunito, Arial, sans-serif" font-size="49" font-weight="900" fill="#fff">CALCULADORA DE</text>
  <text x="54" y="270" font-family="Nunito, Arial, sans-serif" font-size="49" font-weight="900" fill="#4ade80">LUCRO NA PECUÁRIA</text>
  <text x="57" y="315" font-family="Nunito, Arial, sans-serif" font-size="21" font-weight="500" fill="#c0c8bd">Compare cria, recria e engorda com custos reais,</text>
  <text x="57" y="344" font-family="Nunito, Arial, sans-serif" font-size="21" font-weight="500" fill="#c0c8bd">margens, cotações e projeções por modalidade.</text>

  <g transform="translate(54 374)">
    <rect width="306" height="56" rx="16" fill="url(#button)"/>
    <text x="26" y="35" font-family="Nunito, Arial, sans-serif" font-size="18" font-weight="900" fill="#102317">SIMULE SEU RESULTADO</text>
    <path d="M269 28h15m-6-6 6 6-6 6" fill="none" stroke="#102317" stroke-width="2.4" stroke-linecap="round" stroke-linejoin="round"/>
  </g>

  <g filter="url(#shadow)">
    <rect x="692" y="52" width="452" height="356" rx="30" fill="#121711" fill-opacity=".92" stroke="#fff" stroke-opacity=".09"/>
    <g clip-path="url(#cardClip)">
      <circle cx="1117" cy="72" r="115" fill="#4ade80" opacity=".1" filter="url(#soft)"/>
    </g>
  </g>

  <text x="728" y="91" font-family="Nunito, Arial, sans-serif" font-size="14" font-weight="800" letter-spacing="1.1" fill="#8f9b8b">RESULTADO PROJETADO</text>
  <text x="728" y="143" font-family="Nunito, Arial, sans-serif" font-size="43" font-weight="900" fill="#4ade80">R$ 187.420</text>
  <rect x="728" y="164" width="165" height="31" rx="15.5" fill="#4ade80" fill-opacity=".09"/>
  <text x="744" y="185" font-family="Nunito, Arial, sans-serif" font-size="13" font-weight="800" fill="#74e9a0">MARGEM DE 28,4%</text>

  <g font-family="Nunito, Arial, sans-serif">
    <rect x="728" y="216" width="116" height="69" rx="14" fill="#fff" fill-opacity=".035" stroke="#fff" stroke-opacity=".06"/>
    <text x="742" y="238" font-size="12" fill="#899286">RECEITA</text>
    <text x="742" y="266" font-size="18" font-weight="900" fill="#4ade80">R$ 659 mil</text>

    <rect x="858" y="216" width="116" height="69" rx="14" fill="#fff" fill-opacity=".035" stroke="#fff" stroke-opacity=".06"/>
    <text x="872" y="238" font-size="12" fill="#899286">CUSTOS</text>
    <text x="872" y="266" font-size="18" font-weight="900" fill="#f87171">R$ 471 mil</text>

    <rect x="988" y="216" width="116" height="69" rx="14" fill="#fff" fill-opacity=".035" stroke="#fff" stroke-opacity=".06"/>
    <text x="1002" y="238" font-size="12" fill="#899286">LUCRO/MÊS</text>
    <text x="1002" y="266" font-size="18" font-weight="900" fill="#facc15">R$ 10,4 mil</text>
  </g>

  <g transform="translate(728 307)">
    <rect width="376" height="77" rx="14" fill="#fff" fill-opacity=".025" stroke="#fff" stroke-opacity=".05"/>
    <path d="M20 56 C72 48,95 48,135 39 S202 31,242 22 S310 19,356 10" fill="none" stroke="#f87171" stroke-width="3" stroke-linecap="round"/>
    <path d="M20 64 H284 C315 64,331 54,356 17" fill="none" stroke="#4ade80" stroke-width="3" stroke-linecap="round"/>
    <path d="M20 64 C70 61,100 57,140 53 S215 45,254 38 S320 30,356 19" fill="none" stroke="#facc15" stroke-width="2.6" stroke-dasharray="6 6" stroke-linecap="round"/>
  </g>

  <g font-family="Nunito, Arial, sans-serif" font-size="11" fill="#929b90">
    <circle cx="750" cy="397" r="4" fill="#f87171"/><text x="760" y="401">Gastos</text>
    <circle cx="822" cy="397" r="4" fill="#4ade80"/><text x="832" y="401">Receita</text>
    <circle cx="902" cy="397" r="4" fill="#facc15"/><text x="912" y="401">Lucro</text>
  </g>
</svg>
