<?xml version="1.0" encoding="UTF-8" standalone="no"?>
<!-- Created with Inkscape (http://www.inkscape.org/) -->

<svg
   version="1.1"
   id="svg1107"
   width="1528.9877"
   height="400"
   viewBox="0 0 1528.9877 400"
   sodipodi:docname="logo-site.svg"
   inkscape:version="1.4.3 (0d15f75, 2025-12-25)"
   xmlns:inkscape="http://www.inkscape.org/namespaces/inkscape"
   xmlns:sodipodi="http://sodipodi.sourceforge.net/DTD/sodipodi-0.dtd"
   xmlns="http://www.w3.org/2000/svg"
   xmlns:svg="http://www.w3.org/2000/svg">
  <defs
     id="defs1111" />
  <sodipodi:namedview
     id="namedview1109"
     pagecolor="#ffffff"
     bordercolor="#000000"
     borderopacity="0.25"
     inkscape:showpageshadow="2"
     inkscape:pageopacity="0.0"
     inkscape:pagecheckerboard="0"
     inkscape:deskcolor="#d1d1d1"
     showgrid="false"
     inkscape:zoom="0.77"
     inkscape:cx="379.87013"
     inkscape:cy="394.15584"
     inkscape:window-width="3840"
     inkscape:window-height="2054"
     inkscape:window-x="-11"
     inkscape:window-y="-11"
     inkscape:window-maximized="1"
     inkscape:current-layer="g1115">
    <inkscape:page
       x="0"
       y="0"
       id="page1113"
       width="1528.9877"
       height="400"
       margin="0"
       bleed="0" />
  </sodipodi:namedview>
  <g
     id="g1115"
     inkscape:groupmode="layer"
     inkscape:label="Page 1"
     transform="matrix(1.3333333,0,0,-1.3333333,0,2666.6668)">
    <g
       id="g1"
       transform="matrix(2.6666665,0,0,2.6666644,2.9110027e-5,-3333.3292)">
      <path
         d="m 56.249994,1887.5001 c -15.025908,0 -29.150467,5.8495 -39.775422,16.4743 -10.6249565,10.6248 -16.474582916261,24.7511 -16.474582916261,39.7747 0,15.0257 5.849626416261,29.15 16.474582916261,39.7747 10.624955,10.6248 24.749514,16.4764 39.775422,16.4764 15.025912,0 29.15047,-5.8516 39.775424,-16.4764 10.624962,-10.6247 16.474582,-24.749 16.474582,-39.7747 0,-15.0236 -5.84962,-29.1499 -16.474582,-39.7747 -10.624954,-10.6248 -24.749512,-16.4743 -39.775424,-16.4743"
         style="fill:#05384b;fill-opacity:1;fill-rule:nonzero;stroke:none;stroke-width:0.0203463"
         id="path1431" />
      <path
         d="m 108.50598,1943.7491 c 0,-2.3846 -0.1587,-4.7325 -0.47001,-7.0316 -0.98273,-7.3043 -3.47518,-14.1345 -7.15384,-20.159 -7.570939,-12.401 -20.165437,-21.4021 -34.953292,-24.1712 h -0.0018 c -1.83526,-0.3439 -3.699001,-0.59 -5.595298,-0.7366 h -0.0018 c -0.681606,-0.053 -1.365252,-0.093 -2.054997,-0.118 -0.427278,-0.016 -0.852522,-0.028 -1.281831,-0.033 -0.246195,0 -0.494424,-0.01 -0.74265,-0.01 -0.376413,0 -0.754857,0 -1.131267,0.01 -0.526974,0.012 -1.045812,0.033 -1.566684,0.059 h -0.0018 c -0.699921,0.035 -1.395774,0.083 -2.089587,0.1485 -1.973616,0.177 -3.914673,0.468 -5.819109,0.8606 h -0.0018 c -14.065555,2.8994 -26.063902,11.4529 -33.518869,23.1784 -3.959434,6.2259 -6.6390716,13.3491 -7.6604669,20.9952 -0.3092673,2.291 -0.4659354,4.6287 -0.4659354,7.0031 0,4.0367 0.4557621,7.9656 1.3245588,11.7378 2.5331425,11.0459 8.5719915,20.7571 16.8794775,27.8986 5.831315,5.0153 12.783723,8.7671 20.427912,10.8242 4.343985,1.1719 8.911779,1.7965 13.624032,1.7965 4.580007,0 9.019618,-0.588 13.251697,-1.6969 7.56687,-1.9756 14.466378,-5.6094 20.285484,-10.4864 8.39701,-7.0336 14.549805,-16.6573 17.231475,-27.6423 0.97256,-3.9837 1.48733,-8.1466 1.48733,-12.4315"
         style="fill:#f2d041;fill-opacity:1;fill-rule:nonzero;stroke:none;stroke-width:0.0203463"
         id="path1433" />
      <path
         d="m 58.274475,1891.5327 31.512697,92.2902 c 8.397013,-7.0336 14.549798,-16.6574 17.231478,-27.6423 0.97256,-3.9838 1.48733,-8.1466 1.48733,-12.4315 0,-2.3846 -0.1587,-4.7325 -0.47001,-7.0316 -0.98273,-7.3043 -3.47518,-14.1345 -7.15384,-20.159 v 0 l -34.953292,-24.1712 v 0 h -0.0018 c -1.83526,-0.3439 -3.699001,-0.59 -5.595298,-0.7366 h -0.0018 c -0.681606,-0.053 -1.365252,-0.093 -2.054997,-0.118"
         style="fill:#e6aa11;fill-opacity:1;fill-rule:nonzero;stroke:none;stroke-width:0.0203463"
         id="path1435" />
      <path
         d="m 108.50598,1943.7491 c 0,-2.3846 -0.1587,-4.7325 -0.47001,-7.0316 -0.98273,-7.3043 -3.47518,-14.1345 -7.15384,-20.159 -7.570939,-12.401 -20.165437,-21.4021 -34.953292,-24.1712 h -0.0018 c -1.83526,-0.3439 -3.699001,-0.59 -5.595298,-0.7366 l 46.68703,64.5299 c 0.97257,-3.9838 1.48733,-8.1466 1.48733,-12.4315"
         style="fill:#da8b04;fill-opacity:1;fill-rule:nonzero;stroke:none;stroke-width:0.0203463"
         id="path1437" />
      <path
         d="m 53.550012,1891.5633 c -0.699921,0.034 -1.395774,0.083 -2.089587,0.1485 -1.973616,0.177 -3.914673,0.468 -5.819109,0.8606 h -0.0018 v 0 l -33.518869,23.1784 v 0 c -3.9594343,6.2259 -6.6390719,13.3491 -7.6604675,20.9952 -0.309267,2.291 -0.4659351,4.6287 -0.4659351,7.0031 0,4.0367 0.4557621,7.9655 1.3245588,11.7377 2.5331425,11.0459 8.5719908,20.7572 16.8794778,27.8987 l 31.351836,-91.8222"
         style="fill:#e6aa11;fill-opacity:1;fill-rule:nonzero;stroke:none;stroke-width:0.0203463"
         id="path1439" />
      <path
         d="m 5.3185713,1955.4868 46.1418537,-63.775 c -1.973616,0.177 -3.914673,0.468 -5.819109,0.8606 h -0.0018 c -14.065555,2.8993 -26.063902,11.4529 -33.518869,23.1784 -3.9594343,6.2259 -6.6390719,13.3491 -7.6604675,20.9952 -0.309267,2.291 -0.4659351,4.6287 -0.4659351,7.0031 0,4.0367 0.4557621,7.9655 1.3245588,11.7377"
         style="fill:#da8b04;fill-opacity:1;fill-rule:nonzero;stroke:none;stroke-width:0.0203463"
         id="path1441" />
      <path
         d="m 56.249994,1891.4941 c -0.37641,0 -0.754857,0 -1.131267,0.01 v 0 l -12.492768,102.7054 c 4.343988,1.1719 8.911779,1.7965 13.624035,1.7965 4.580004,0 9.019618,-0.5879 13.251694,-1.6968 L 56.992644,1891.5003 v 0 c -0.246195,0 -0.494421,-0.01 -0.74265,-0.01"
         style="fill:#f8e359;fill-opacity:1;fill-rule:nonzero;stroke:none;stroke-width:0.0203463"
         id="path1443" />
      <path
         d="m 108.69927,1936.1885 c -3.47519,-25.862 -25.634588,-45.8033 -52.449276,-45.8033 -26.82486,0 -47.9458349,15.0318 -51.4128828,40.9081 26.8341398,20.0886 78.1993708,16.5461 102.9060088,-1.492"
         style="fill:#05384b;fill-opacity:1;fill-rule:nonzero;stroke:none;stroke-width:0.0203463"
         id="path1445"
         sodipodi:nodetypes="cscc" />
      <path
         d="m 62.638539,1962.5827 -2.574774,-2.2132 -0.365145,-2.2101 -1.850736,6.624 -0.386574,2.8683 c 0.103926,-0.1097 0.158946,-0.1686 0.158946,-0.1686 0,0 2.088531,-0.6929 4.171032,0.01 0.07118,0.022 0.154596,0.025 0.254325,0 l -0.515532,-2.3345 1.108458,-2.5742"
         style="fill:#14758c;fill-opacity:1;fill-rule:nonzero;stroke:none;stroke-width:0.0203463"
         id="path1447" />
      <path
         d="m 42.038718,1968.9848 17.21556,-13.7363 0.03706,-1.8567 -19.533516,15.5856 2.2809,0.01"
         style="fill:#31606e;fill-opacity:1;fill-rule:nonzero;stroke:none;stroke-width:0.0604044"
         id="path16" />
      <path
         d="m 57.13629,1969.0352 c 0.677427,-2.7656 1.179138,-5.5616 1.589031,-8.3728 l -10.456458,8.3433 8.867427,0.029"
         style="fill:#31606e;fill-opacity:1;fill-rule:nonzero;stroke:none;stroke-width:0.0604044"
         id="path18" />
      <path
         d="m 38.325633,1968.9723 -1.010613,-1.2663 20.864541,-16.6474 1.129974,1.4169 0.109209,-5.4538 h -4.264002 l 0.0015,0.2272 -11.593539,-0.016 -0.01428,10.0844 -6.942348,-0.01 -0.0165,11.6646 1.736649,0.01"
         style="fill:#31606e;fill-opacity:1;fill-rule:nonzero;stroke:none;stroke-width:0.0604044"
         id="path20" />
      <path
         d="m 48.268863,1969.0057 10.456458,-8.3433 c 0.179937,-1.232 0.347205,-2.4664 0.495123,-3.7045 l 0.03383,-1.7094 -17.21556,13.7363 6.230145,0.021"
         style="fill:#55aea4;fill-opacity:1;fill-rule:nonzero;stroke:none;stroke-width:0.0604044"
         id="path22" />
      <path
         d="m 37.31502,1967.706 1.010613,1.2663 1.432185,0.01 19.533513,-15.5856 0.01818,-0.9163 -1.129977,-1.4168 -20.864538,16.6474"
         style="fill:#55aea4;fill-opacity:1;fill-rule:nonzero;stroke:none;stroke-width:0.0604044"
         id="path24" />
      <path
         d="m 91.469995,1945.5334 -0.144051,1.4791 c -0.02208,0.2313 -0.146784,0.4208 -0.35049,0.5329 -0.203727,0.1126 -0.42966,0.1166 -0.637902,0.012 l -3.842667,-1.9299 4.97511,-0.094"
         style="fill:#07506b;fill-opacity:1;fill-rule:evenodd;stroke:none;stroke-width:0.0604044"
         id="path26" />
      <path
         d="m 90.519838,1947.2258 c -0.18666,-3e-4 -0.338046,-0.1527 -0.337782,-0.3393 2.67e-4,-0.1873 0.152082,-0.3381 0.338742,-0.3378 0.187248,2e-4 0.338655,0.1515 0.338391,0.3387 -2.64e-4,0.1867 -0.152103,0.3387 -0.339351,0.3384"
         style="fill:#ffffff;fill-opacity:1;fill-rule:evenodd;stroke:none;stroke-width:0.0604044"
         id="path28" />
      <path
         d="m 94.391582,1944.826 c 0.0018,-1.2612 -0.222163,-6.0709 -0.534577,-6.4078 -0.473472,-0.5111 -6.667533,-0.8557 -8.97861,-0.859 -3.180933,0 -2.865738,8.6199 -0.302748,8.6235 1.531257,0 9.689302,-0.6568 9.815935,-1.3567"
         style="fill:#07516c;fill-opacity:1;fill-rule:evenodd;stroke:none;stroke-width:0.0604044"
         id="path30" />
      <path
         d="m 79.178548,1955.9303 h 1.485963 l -0.0075,5.298 h -1.485966 l 0.0075,-5.298"
         style="fill:#3a3a3c;fill-opacity:1;fill-rule:evenodd;stroke:none;stroke-width:0.0604044"
         id="path32" />
      <path
         d="m 58.782462,1948.4452 -9.66237,-0.014 0.003,-2.1184 9.66237,0.014 -0.003,2.1184"
         style="fill:#3a3a3c;fill-opacity:1;fill-rule:evenodd;stroke:none;stroke-width:0.0604044"
         id="path34" />
      <path
         d="m 30.212891,1954.2621 c -1.926915,0 -3.490892,0.9174 -3.492501,2.0548 -0.0016,1.1369 1.559758,2.0615 3.486672,2.0642 1.926309,0 3.490305,-0.9175 3.491916,-2.0543 0.0015,-1.1374 -1.559781,-2.062 -3.486087,-2.0647"
         style="fill:#0b7ba5;fill-opacity:1;fill-rule:evenodd;stroke:none;stroke-width:0.0604044"
         id="path36" />
      <path
         d="m 26.739408,1956.1056 c -0.01211,0.069 -0.01892,0.1401 -0.01902,0.2113 -0.0013,0.8862 0.947228,1.6426 2.277539,1.935 -0.440662,-1.051 -1.26347,-1.8471 -2.258522,-2.1463"
         style="fill:#f37016;fill-opacity:1;fill-rule:evenodd;stroke:none;stroke-width:0.0604044"
         id="path38" />
      <path
         d="m 71.915152,1933.9305 -34.068415,-0.048 -0.0079,5.5583 34.068412,0.048 z"
         style="fill:#3a3a3c;fill-opacity:1;fill-rule:evenodd;stroke:none;stroke-width:0.0604044"
         id="path40" />
      <path
         d="m 43.714221,1968.6495 0.01968,-13.9043 h 1.104813 l -0.01965,13.9043 13.856298,0.02 -0.199461,0.9372 -21.117153,0.5193 0.0021,-1.4866 6.3534,0.01"
         style="fill:#3a3a3c;fill-opacity:1;fill-rule:evenodd;stroke:none;stroke-width:0.0604044"
         id="path42" />
      <path
         d="m 35.81247,1968.7543 -1.521972,-11.6842 2.241702,-0.06 1.007445,11.6171 -1.727175,0.1268"
         style="fill:#3a3a3c;fill-opacity:1;fill-rule:evenodd;stroke:none;stroke-width:0.0604044"
         id="path44" />
      <path
         d="m 36.156648,1959.4689 c 2.040471,0 7.408125,-0.8853 8.522592,-1.7372 2.179971,-1.6671 6.528348,-8.7983 6.037029,-13.3354 -0.515775,-4.7672 -10.785033,-1.4945 -12.477291,5.5498 -0.218136,0.9064 -4.940329,9.68 -2.08233,9.5228"
         style="fill:#3a3a3c;fill-opacity:1;fill-rule:evenodd;stroke:none;stroke-width:0.0604044"
         id="path46" />
      <path
         d="m 55.794795,1968.968 h -1.136229 l 0.0345,-24.3868 h 1.136232 l -0.03451,24.3868"
         style="fill:#3a3a3c;fill-opacity:1;fill-rule:evenodd;stroke:none;stroke-width:0.0604044"
         id="path48" />
      <path
         d="m 77.020474,1939.1301 1.258515,8.3411 0.896721,3.6328 c 0.414423,1.6786 1.605906,1.8875 2.881671,1.8893 l 3.940815,0.01 c -2.1e-4,5.7553 -20.671491,4.884 -27.495448,4.8743 l 0.08362,-10.852 -8.666922,-0.012 c -1.160061,4.043 -4.037205,8.7746 -6.045393,9.856 -15.866946,4.9307 -22.67863,-4.1686 -22.617392,-5.617 0.182497,-4.321 8.614062,-1.0545 9.816226,-7.5318 0.866781,-4.6728 4.452313,-8.0099 9.041284,-8.0034 2.741163,0 3.950202,3.1907 6.751164,3.2098 l 30.15514,0.2075"
         style="fill:#075f81;fill-opacity:1;fill-rule:evenodd;stroke:none;stroke-width:0.0604044"
         id="path50" />
      <path
         d="m 85.999417,1952.9989 -1.143477,-10.2528 -9.732447,-0.014 3.077658,10.6578 7.798266,-0.3913"
         style="fill:#3a3a3c;fill-opacity:1;fill-rule:evenodd;stroke:none;stroke-width:0.0604044"
         id="path52" />
      <path
         d="m 85.409203,1953.0282 -1.388061,-10.2833 H 83.42737 l 1.426068,10.3118 0.555765,-0.028"
         style="fill:#211c1d;fill-opacity:1;fill-rule:evenodd;stroke:none;stroke-width:0.0604044"
         id="path54" />
      <path
         d="m 84.106792,1953.0935 -1.397043,-10.3504 h -0.593772 l 1.43505,10.3788 0.555765,-0.028"
         style="fill:#211c1d;fill-opacity:1;fill-rule:evenodd;stroke:none;stroke-width:0.0604044"
         id="path56" />
      <path
         d="m 82.804357,1953.1587 -1.406592,-10.4175 h -0.593793 l 1.44462,10.4465 0.555765,-0.028"
         style="fill:#211c1d;fill-opacity:1;fill-rule:evenodd;stroke:none;stroke-width:0.0604044"
         id="path58" />
      <path
         d="m 81.501331,1953.2244 -1.414956,-10.4851 h -0.593796 l 1.453575,10.5142 0.555177,-0.028"
         style="fill:#211c1d;fill-opacity:1;fill-rule:evenodd;stroke:none;stroke-width:0.0604044"
         id="path60" />
      <path
         d="m 80.198896,1953.2897 -1.424526,-10.5522 h -0.593772 l 1.463145,10.5812 0.555153,-0.028"
         style="fill:#211c1d;fill-opacity:1;fill-rule:evenodd;stroke:none;stroke-width:0.0604044"
         id="path62" />
      <path
         d="m 78.896464,1953.3549 -1.433487,-10.6193 h -0.593772 l 1.472103,10.6483 0.555156,-0.028"
         style="fill:#211c1d;fill-opacity:1;fill-rule:evenodd;stroke:none;stroke-width:0.0604044"
         id="path64" />
      <path
         d="m 18.129188,1933.5337 c -0.133306,-0.9956 0.388165,-1.9656 1.214846,-2.2109 0.870811,-0.2585 1.749994,0.3824 1.964162,1.4326 0.08638,0.4253 0.04893,0.8523 -0.08267,1.2267 h 3.041395 c 0.178195,2e-4 0.324291,0.052 0.324202,0.1152 l -6.3e-4,0.4427 c -8.9e-5,0.063 -0.146331,0.114 -0.324525,0.1137 l -3.961363,-0.01 c -0.178806,-2e-4 -0.324923,-0.052 -0.324834,-0.1146 l 6e-4,-0.4427 c 8.9e-5,-0.063 0.146352,-0.1146 0.325158,-0.1144 h 0.238603 c -0.0029,-0.1389 -0.01832,-0.2815 -0.04774,-0.4259 -0.175754,-0.8622 -0.768747,-1.4278 -1.324707,-1.2625 -0.398226,0.1178 -0.670097,0.5783 -0.727079,1.1473 l -0.315443,0.094"
         style="fill:#096a8e;fill-opacity:1;fill-rule:evenodd;stroke:none;stroke-width:0.0604044"
         id="path66" />
      <path
         d="m 58.822176,1957.1065 h -1.132611 l 0.01428,-10.0844 h 1.132605 l -0.01428,10.0844"
         style="fill:#3a3a3c;fill-opacity:1;fill-rule:evenodd;stroke:none;stroke-width:0.0604044"
         id="path68" />
      <path
         d="m 58.475871,1969.6079 c -0.0034,2.3956 -13.319823,2.4867 -20.114697,1.9987 -2.394828,-0.1713 -2.42532,-1.6724 -2.565429,-2.9816 h 1.7439 c 0.121272,0.5263 0.399135,0.9514 2.588826,0.9545 l 18.3474,0.026"
         style="fill:#085471;fill-opacity:1;fill-rule:evenodd;stroke:none;stroke-width:0.0604044"
         id="path70" />
      <path
         d="m 59.245722,1957.8743 -14.742426,-0.021 0.0012,-0.9568 14.897613,0.062 -0.156537,0.9155"
         style="fill:#3a3a3c;fill-opacity:1;fill-rule:evenodd;stroke:none;stroke-width:0.0604044"
         id="path72" />
      <path
         d="m 35.990385,1968.1047 v 0 c -0.175944,0.5385 -0.759864,0.8355 -1.299042,0.6595 l -0.664153,-0.2165 0.638848,-1.9587 0.664149,0.2166 c 0.538569,0.176 0.835536,0.7599 0.660198,1.2991"
         style="fill:#3a3a3c;fill-opacity:1;fill-rule:evenodd;stroke:none;stroke-width:0.0604044"
         id="path74" />
      <path
         d="m 60.102498,1966.6872 h -1.420734 c -0.253092,0 -0.459396,-0.2072 -0.459039,-0.4609 l 0.0068,-4.8112 c 3e-4,-0.2531 0.207249,-0.4594 0.460338,-0.459 H 60.1106 c 0.253089,0 0.459987,0.2072 0.45963,0.4603 l -0.0068,4.8112 c -3e-4,0.2537 -0.20784,0.4599 -0.460929,0.4596"
         style="fill:#3a3a3c;fill-opacity:1;fill-rule:evenodd;stroke:none;stroke-width:0.0604044"
         id="path76" />
      <path
         d="m 59.261532,1965.9111 h 0.428277 l -0.0027,1.7046 c -0.0012,0.8673 -0.708357,1.5767 -1.576389,1.5809 l -2.178822,0.01 -0.0018,-0.4277 2.178822,-0.01 c 0.633042,0 1.149033,-0.5202 1.149927,-1.1532 l 0.0027,-1.7046"
         style="fill:#3a3a3c;fill-opacity:1;fill-rule:nonzero;stroke:none;stroke-width:0.0604044"
         id="path78" />
      <path
         d="m 84.105421,1954.0599 c -3.22383,1.2796 -15.519981,2.2039 -24.402319,2.4547 l -0.09221,-1.8509 c 6.409471,0.084 17.163904,-0.2765 24.494866,-0.8363 l -3e-4,0.2325"
         style="fill:#0d91c3;fill-opacity:1;fill-rule:evenodd;stroke:none;stroke-width:0.0604044"
         id="path80" />
      <path
         d="m 19.882887,1950.079 c 0.684535,2.4619 9.911625,9.1399 18.196638,6.695 7.527804,-2.2207 11.688507,-7.3389 11.830191,-17.8309 l -9.74574,-0.01 -20.281089,11.143"
         style="fill:#3a3a3c;fill-opacity:1;fill-rule:evenodd;stroke:none;stroke-width:0.0604044"
         id="path82" />
      <path
         d="m 34.124399,1953.6388 c -7.954729,-0.011 -14.396259,-6.4709 -14.385005,-14.4255 0.01126,-7.9545 6.471037,-14.3959 14.425769,-14.3847 7.95412,0.011 14.39626,6.4709 14.385004,14.4255 -0.01125,7.9546 -6.471648,14.396 -14.425768,14.3847"
         style="fill:#3a3a3c;fill-opacity:1;fill-rule:evenodd;stroke:none;stroke-width:0.0604044"
         id="path84" />
      <path
         d="m 34.127303,1951.587 c -6.821532,-0.01 -12.345595,-5.5494 -12.335943,-12.3708 0.0097,-6.8214 5.549367,-12.3453 12.370899,-12.3357 6.821533,0.01 12.344983,5.5493 12.335332,12.3707 -0.0096,6.8214 -5.548755,12.3454 -12.370288,12.3358"
         style="fill:#505256;fill-opacity:1;fill-rule:evenodd;stroke:none;stroke-width:0.0604044"
         id="path86" />
      <path
         d="m 37.792758,1953.2393 c -0.276144,0.072 -0.555306,0.1352 -0.837471,0.1903 l -0.748563,-2.4625 c 0.39816,-0.07 0.78912,-0.1583 1.172847,-0.2665 l 0.413187,2.5387 m 2.831487,-1.0657 c -0.255693,0.1283 -0.514998,0.2487 -0.778524,0.3619 l -1.244178,-2.253 c 0.373515,-0.1511 0.737406,-0.3203 1.090416,-0.5065 l 0.932286,2.3976 m 2.547177,-1.6327 c -0.223743,0.179 -0.452313,0.3515 -0.686331,0.5172 l -1.684953,-1.9449 c 0.333144,-0.2249 0.65364,-0.4666 0.961461,-0.7229 l 1.409823,2.1506 m 2.154039,-2.1232 c -0.182739,0.2214 -0.370905,0.4368 -0.565695,0.6473 l -2.052195,-1.5523 c 0.278871,-0.2883 0.543276,-0.5905 0.791988,-0.9055 l 1.825902,1.8105 m 1.667124,-2.5238 c -0.132042,0.2541 -0.272544,0.5046 -0.419061,0.7497 l -2.330697,-1.0918 c 0.212511,-0.3392 0.408111,-0.6893 0.586203,-1.0502 l 2.163555,1.3923 m 1.103961,-2.8168 c -0.0759,0.2771 -0.159036,0.5512 -0.251244,0.8211 l -2.507799,-0.5834 c 0.137055,-0.3744 0.254772,-0.7584 0.354393,-1.149 l 2.40465,0.9113 m 0.491706,-2.9851 c -0.01728,0.2875 -0.0425,0.5732 -0.07612,0.8558 l -2.57259,-0.049 c 0.05553,-0.3937 0.09052,-0.7929 0.106806,-1.1982 l 2.541909,0.3914 m -0.135261,-3.0216 c 0.04247,0.2815 0.0759,0.5667 0.101481,0.853 l -2.527446,0.4869 c -0.02721,-0.4041 -0.07498,-0.8028 -0.142077,-1.1944 l 2.568042,-0.1455 m -0.761802,-2.9277 c 0.1005,0.2671 0.194952,0.5379 0.279123,0.8123 l -2.37171,1.0017 c -0.110604,-0.3873 -0.240528,-0.7674 -0.388617,-1.1379 l 2.481204,-0.6761 m -1.355283,-2.7044 c 0.154293,0.2413 0.300723,0.4867 0.440517,0.737 l -2.11023,1.4727 c -0.189171,-0.3549 -0.395259,-0.6995 -0.617688,-1.032 l 2.287401,-1.1777 m -1.889154,-2.3627 c 0.200859,0.2039 0.396276,0.4138 0.584442,0.6297 l -1.758036,1.8791 c -0.257502,-0.3078 -0.530724,-0.6018 -0.817845,-0.8819 l 1.991439,-1.6269 m -2.336178,-1.9205 c 0.238992,0.158 0.473724,0.3221 0.703029,0.4933 l -1.329612,2.2047 c -0.315573,-0.2469 -0.643839,-0.4781 -0.983631,-0.693 l 1.610214,-2.005 m -2.684238,-1.3955 c 0.26745,0.1049 0.530655,0.2182 0.789618,0.3382 l -0.842472,2.4325 c -0.358542,-0.1757 -0.727404,-0.3345 -1.105347,-0.4739 l 1.158201,-2.2968 m -2.917638,-0.802 c 0.284439,0.047 0.565248,0.1016 0.84303,0.1649 l -0.317724,2.554 c -0.385857,-0.097 -0.780189,-0.1732 -1.179996,-0.2312 l 0.65469,-2.4877 m -3.019399,-0.1783 c 0.224112,-0.01 0.448827,-0.016 0.675954,-0.015 0.061,10e-5 0.122014,0 0.183013,0 l 0.219882,2.5639 c -0.134688,-0.01 -0.270597,-0.01 -0.407122,-0.01 -0.266991,0 -0.532179,0.01 -0.79557,0.027 l 0.123843,-2.5694 m -2.991294,0.4494 c 0.275553,-0.072 0.555306,-0.1351 0.83688,-0.1909 l 0.748566,2.4625 c -0.397569,0.07 -0.789123,0.159 -1.172241,0.2671 l -0.413205,-2.5387 m -2.832098,1.0651 c 0.255694,-0.1283 0.515019,-0.2487 0.778545,-0.3625 l 1.244767,2.2542 c -0.37351,0.1505 -0.737384,0.3197 -1.091028,0.5059 l -0.932284,-2.3976 m -2.547173,1.6322 c 0.223759,-0.1785 0.452333,-0.3515 0.686328,-0.5167 l 1.685584,1.9449 c -0.333757,0.2249 -0.654251,0.4661 -0.962071,0.7229 l -1.409841,-2.1511 m -2.154021,2.1237 c 0.182129,-0.2214 0.370905,-0.4373 0.565695,-0.6473 l 2.052195,1.5523 c -0.278892,0.2883 -0.543274,0.59 -0.791989,0.9055 l -1.825901,-1.8105 m -1.667124,2.5232 c 0.132042,-0.2541 0.271932,-0.504 0.418449,-0.7496 l 2.331309,1.0917 c -0.212511,0.3392 -0.40811,0.6899 -0.586815,1.0502 l -2.162943,-1.3923 m -1.104571,2.8169 c 0.07649,-0.2772 0.159035,-0.5513 0.251241,-0.8212 l 2.507802,0.5835 c -0.137056,0.3748 -0.254774,0.7583 -0.354394,1.1489 l -2.404649,-0.9112 m -0.492296,2.985 c 0.0173,-0.2875 0.04248,-0.5731 0.07611,-0.8558 l 2.573198,0.05 c -0.05553,0.3931 -0.09113,0.7929 -0.106804,1.1976 l -2.5425,-0.3914 m 0.13526,3.0222 c -0.04249,-0.2821 -0.07531,-0.5661 -0.101482,-0.853 l 2.527425,-0.4869 c 0.02722,0.4041 0.07559,0.8023 0.142079,1.1944 l -2.568022,0.1455 m 0.761784,2.9277 c -0.100501,-0.2671 -0.194342,-0.5379 -0.279126,-0.8116 l 2.37171,-1.0024 c 0.110604,0.388 0.241139,0.7675 0.388616,1.138 l -2.4812,0.676 m 1.355302,2.705 c -0.154314,-0.2412 -0.300745,-0.4873 -0.440518,-0.7376 l 2.11082,-1.472 c 0.188557,0.3548 0.394669,0.6994 0.617096,1.0313 l -2.287398,1.1783 m 1.88915,2.3626 c -0.200878,-0.2038 -0.395684,-0.4137 -0.58444,-0.629 l 1.758628,-1.8797 c 0.257498,0.3078 0.530723,0.6018 0.817843,0.8819 l -1.992031,1.6268 m 2.336769,1.9212 c -0.238991,-0.158 -0.47372,-0.3226 -0.703028,-0.4939 l 1.329612,-2.2041 c 0.314961,0.2469 0.643841,0.4781 0.98302,0.6925 l -1.609604,2.0055 m 2.684239,1.3949 c -0.266841,-0.1049 -0.530048,-0.2176 -0.78962,-0.3376 l 0.842471,-2.4325 c 0.358544,0.1757 0.727407,0.3339 1.105348,0.474 l -1.158199,2.2961 m 2.917636,0.8021 c -0.283827,-0.047 -0.564633,-0.1017 -0.843027,-0.1643 l 0.318333,-2.5541 c 0.385857,0.096 0.780186,0.1733 1.179996,0.2306 l -0.655302,2.4878 m 3.020014,0.1776 0.12384,-2.5688 c -0.263388,0.017 -0.529188,0.026 -0.797398,0.026 -0.135915,-2e-4 -0.270606,0 -0.405291,-0.01 l 0.219858,2.5638 c 0.06102,0 0.121407,0 0.182424,0 0.226519,0 0.452437,-0.01 0.676567,-0.015"
         style="fill:#505256;fill-opacity:1;fill-rule:evenodd;stroke:none;stroke-width:0.0604044"
         id="path88" />
      <path
         d="m 34.133456,1947.2367 c -4.419828,-0.01 -7.997981,-3.5952 -7.991729,-8.0143 0.0063,-4.4191 3.594546,-7.9979 8.014376,-7.9916 4.419223,0.01 7.997374,3.5951 7.991122,8.0143 -0.0063,4.4191 -3.594546,7.9978 -8.013769,7.9916"
         style="fill:#f9dd09;fill-opacity:1;fill-rule:evenodd;stroke:none;stroke-width:0.0604044"
         id="path90" />
      <path
         d="m 34.134821,1945.8413 c -3.648453,-0.01 -6.602912,-2.9685 -6.597751,-6.6169 0.0052,-3.649 2.967994,-6.6034 6.61645,-6.5983 3.649066,0.01 6.604135,2.968 6.598972,6.617 -0.0052,3.6484 -2.968605,6.6034 -6.617671,6.5982"
         style="fill:#eab512;fill-opacity:1;fill-rule:evenodd;stroke:none;stroke-width:0.0604044"
         id="path92" />
      <path
         d="m 34.140281,1941.9833 c -1.517973,0 -2.747886,-1.2355 -2.745735,-2.7535 0.0021,-1.5185 1.235544,-2.7484 2.753514,-2.7463 1.518583,0 2.748496,1.2356 2.746348,2.7541 -0.0024,1.518 -1.235547,2.7479 -2.754127,2.7457"
         style="fill:#f9dd09;fill-opacity:1;fill-rule:evenodd;stroke:none;stroke-width:0.0604044"
         id="path94" />
      <path
         d="m 34.138073,1943.5423 c -0.234369,0 -0.424362,-0.1908 -0.424029,-0.4252 3e-4,-0.2344 0.19086,-0.4244 0.425232,-0.424 0.234985,0 0.424996,0.1908 0.424663,0.4252 -3e-4,0.2344 -0.190881,0.4244 -0.425866,0.424"
         style="fill:#f9dd09;fill-opacity:1;fill-rule:evenodd;stroke:none;stroke-width:0.0604044"
         id="path96" />
      <path
         d="m 36.672624,1942.7232 c -0.190455,0.1381 -0.455571,0.095 -0.59364,-0.094 -0.137457,-0.1898 -0.0948,-0.4555 0.09507,-0.5936 0.189861,-0.1375 0.455589,-0.095 0.593049,0.095 0.137454,0.1898 0.0948,0.4556 -0.09448,0.593"
         style="fill:#f9dd09;fill-opacity:1;fill-rule:evenodd;stroke:none;stroke-width:0.0604044"
         id="path98" />
      <path
         d="m 38.241375,1940.5714 c -0.0734,0.2234 -0.313377,0.3451 -0.536169,0.2723 -0.222795,-0.073 -0.344475,-0.3128 -0.271683,-0.5355 0.07281,-0.2235 0.312786,-0.3451 0.535581,-0.2723 0.222792,0.073 0.345081,0.3127 0.272271,0.5355"
         style="fill:#f9dd09;fill-opacity:1;fill-rule:evenodd;stroke:none;stroke-width:0.0604044"
         id="path100" />
      <path
         d="m 38.245143,1937.9088 c 0.07218,0.223 -0.05018,0.4626 -0.273177,0.5348 -0.222999,0.072 -0.46263,-0.051 -0.53481,-0.2738 -0.07277,-0.2229 0.05018,-0.4626 0.273177,-0.5347 0.222999,-0.072 0.46263,0.05 0.53481,0.2737"
         style="fill:#f9dd09;fill-opacity:1;fill-rule:evenodd;stroke:none;stroke-width:0.0604044"
         id="path102" />
      <path
         d="m 36.683709,1935.752 c 0.188862,0.138 0.230766,0.4032 0.09278,0.5933 -0.137973,0.1895 -0.403821,0.2308 -0.593295,0.093 -0.189477,-0.138 -0.231399,-0.4038 -0.09341,-0.5933 0.137997,-0.1895 0.403842,-0.2314 0.593928,-0.093"
         style="fill:#f9dd09;fill-opacity:1;fill-rule:evenodd;stroke:none;stroke-width:0.0604044"
         id="path104" />
      <path
         d="m 34.15208,1934.9245 c 0.23437,3e-4 0.424381,0.1915 0.424051,0.4259 -3e-4,0.2343 -0.190881,0.4243 -0.425257,0.424 -0.23496,0 -0.424362,-0.1909 -0.424032,-0.4252 3e-4,-0.2344 0.190275,-0.425 0.425238,-0.4247"
         style="fill:#f9dd09;fill-opacity:1;fill-rule:evenodd;stroke:none;stroke-width:0.0604044"
         id="path106" />
      <path
         d="m 31.618142,1935.7437 c 0.189864,-0.1375 0.455592,-0.095 0.593049,0.095 0.137454,0.1899 0.09478,0.4556 -0.09508,0.593 -0.189864,0.1375 -0.455571,0.095 -0.593031,-0.095 -0.137457,-0.1899 -0.0948,-0.4556 0.09507,-0.593"
         style="fill:#f9dd09;fill-opacity:1;fill-rule:evenodd;stroke:none;stroke-width:0.0604044"
         id="path108" />
      <path
         d="m 30.049388,1937.8954 c 0.07281,-0.2227 0.312786,-0.3444 0.535581,-0.2716 0.222792,0.073 0.344472,0.3127 0.272274,0.5355 -0.0734,0.2228 -0.312789,0.3445 -0.536172,0.2717 -0.222795,-0.073 -0.344471,-0.3128 -0.271683,-0.5356"
         style="fill:#f9dd09;fill-opacity:1;fill-rule:evenodd;stroke:none;stroke-width:0.0604044"
         id="path110" />
      <path
         d="m 30.045032,1940.5586 c -0.07218,-0.223 0.05017,-0.4626 0.273177,-0.5348 0.223608,-0.072 0.463239,0.05 0.535395,0.2732 0.07218,0.223 -0.05079,0.4627 -0.273786,0.5354 -0.222996,0.072 -0.46263,-0.051 -0.534786,-0.2738"
         style="fill:#f9dd09;fill-opacity:1;fill-rule:evenodd;stroke:none;stroke-width:0.0604044"
         id="path112" />
      <path
         d="m 31.607075,1942.7155 c -0.189474,-0.138 -0.231396,-0.4039 -0.0934,-0.5933 0.138603,-0.1895 0.404451,-0.2314 0.593316,-0.093 0.190086,0.1386 0.231378,0.4039 0.09339,0.5934 -0.137997,0.1894 -0.403821,0.2313 -0.593298,0.093"
         style="fill:#f9dd09;fill-opacity:1;fill-rule:evenodd;stroke:none;stroke-width:0.0604044"
         id="path114" />
      <path
         d="M 55.431621,1973.3323 H 54.77382 l 0.008,-5.6012 h 0.657804 l -0.008,5.6012"
         style="fill:#3a3a3c;fill-opacity:1;fill-rule:evenodd;stroke:none;stroke-width:0.0604044"
         id="path116" />
      <path
         d="m 55.099017,1976.1648 v 0 c -0.616134,0 -1.118592,-0.5048 -1.117719,-1.1203 l 9e-4,-0.7604 c 9e-4,-0.6156 0.504753,-1.118 1.120887,-1.1172 0.615519,0 1.117977,0.5048 1.117107,1.1203 l -9e-4,0.7605 c -9e-4,0.6155 -0.50475,1.118 -1.120272,1.1171"
         style="fill:#f37016;fill-opacity:1;fill-rule:evenodd;stroke:none;stroke-width:0.0604044"
         id="path118" />
      <path
         d="m 53.982324,1974.3185 4.8e-5,-0.034 c 9e-4,-0.6156 0.504753,-1.118 1.120887,-1.1172 0.615522,0 1.117977,0.5048 1.117107,1.1203 l -4.8e-5,0.034 h -2.237994"
         style="fill:#3a3a3c;fill-opacity:1;fill-rule:evenodd;stroke:none;stroke-width:0.0604044"
         id="path120" />
      <path
         d="m 78.19876,1953.3829 c -4.298994,0.3986 -12.831417,0.5411 -19.371469,0.5247 l 0.0097,-6.8861 -8.619795,-0.012 0.350886,-8.0616 23.133109,0.159 3.366819,10.3573 1.1313,3.9189"
         style="fill:#06465d;fill-opacity:1;fill-rule:evenodd;stroke:none;stroke-width:0.0604044"
         id="path122" />
      <path
         d="m 82.769563,1947.866 v 0 c -0.0051,-0.6844 0.793062,-1.2462 1.775256,-1.2497 h 1.209933 l 0.01944,2.4887 h -1.210524 c -0.980991,0 -1.788432,-0.554 -1.794096,-1.2384"
         style="fill:#505256;fill-opacity:1;fill-rule:evenodd;stroke:none;stroke-width:0.0604044"
         id="path124" />
      <path
         d="m 52.403373,1945.686 0.578856,-11.6608 h -2.129871 l -0.674304,11.6606 h 2.225319"
         style="fill:#05384b;fill-opacity:1;fill-rule:evenodd;stroke:none;stroke-width:0.0604044"
         id="path126" />
      <path
         d="m 61.866783,1948.4266 -6.042912,-0.01 0.700914,-13.3846 3.658116,0.01 c 0.358812,0 0.655014,0.2758 0.68169,0.6341 0.30345,4.1121 0.793497,7.8361 1.88091,10.3148 0.0819,0.1862 0.07981,0.3788 -0.0063,0.5636 l -0.872487,1.8754"
         style="fill:#505256;fill-opacity:1;fill-rule:evenodd;stroke:none;stroke-width:0.0604044"
         id="path128" />
      <path
         d="m 56.603931,1945.6919 0.580728,-11.6922 -2.131749,0.028 -0.674907,11.6607 h 2.225928"
         style="fill:#05384b;fill-opacity:1;fill-rule:evenodd;stroke:none;stroke-width:0.0604044"
         id="path130" />
      <path
         d="m 56.136567,1943.4339 -5.45457,-0.01 6e-4,-0.5635 5.454573,0.01 -6e-4,0.5635"
         style="fill:#0d94c6;fill-opacity:1;fill-rule:evenodd;stroke:none;stroke-width:0.0604044"
         id="path132" />
      <path
         d="m 56.393613,1939.3594 -5.455164,-0.01 6e-4,-0.5641 5.455161,0.01 -6e-4,0.5641"
         style="fill:#0d94c7;fill-opacity:1;fill-rule:evenodd;stroke:none;stroke-width:0.0604044"
         id="path134" />
      <path
         d="m 56.651046,1934.5945 -5.454576,-0.01 6e-4,-0.5641 5.45457,0.01 -6e-4,0.5641"
         style="fill:#0d8ebe;fill-opacity:1;fill-rule:evenodd;stroke:none;stroke-width:0.0604044"
         id="path136" />
      <path
         d="m 75.55402,1946.2623 0.989316,5.6329 c 0.08089,0.4622 -0.05381,0.8873 -0.396819,1.2504 -0.343617,0.3632 -0.79995,0.5637 -1.344237,0.5913 l -1.80444,0.09 c -0.955662,0.048 -1.79088,-0.5208 -1.95342,-1.3304 l -1.136673,-5.656 c -0.09539,-0.4713 0.03752,-0.9097 0.388398,-1.2819 0.350871,-0.3722 0.821712,-0.5751 1.379295,-0.5942 l 1.952388,-0.067 c 0.958068,-0.034 1.783572,0.5516 1.926192,1.3654"
         style="fill:#042835;fill-opacity:1;fill-rule:evenodd;stroke:none;stroke-width:0.0604044"
         id="path138" />
      <path
         d="m 75.170407,1946.719 0.722304,4.8026 c 0.05983,0.3945 -0.03914,0.7568 -0.290247,1.0663 -0.251127,0.3101 -0.585417,0.4806 -0.983511,0.5042 l -1.31997,0.077 c -0.699531,0.041 -1.310157,-0.444 -1.429389,-1.1339 l -0.830394,-4.8227 c -0.06949,-0.4017 0.02769,-0.7755 0.284238,-1.0929 0.257184,-0.3173 0.601734,-0.4908 1.0095,-0.5071 l 1.428045,-0.058 c 0.701343,-0.029 1.304685,0.47 1.409424,1.1641"
         style="fill:#05384b;fill-opacity:1;fill-rule:evenodd;stroke:none;stroke-width:0.0604044"
         id="path140" />
      <path
         d="m 76.119064,1951.2078 -4.936992,0.4768 0.03582,-0.5526 4.901955,-0.4769 -6e-4,0.5527"
         style="fill:#0fa6de;fill-opacity:1;fill-rule:evenodd;stroke:none;stroke-width:0.0604044"
         id="path142" />
      <path
         d="m 75.584806,1947.9845 -4.775115,1.3414 -0.06264,-0.5509 4.740681,-1.3343 0.09707,0.5438"
         style="fill:#0d93c5;fill-opacity:1;fill-rule:evenodd;stroke:none;stroke-width:0.0604044"
         id="path144" />
      <path
         d="m 82.335421,1948.5909 c -10.445658,3.7157 -19.676026,-3.6546 -19.208833,-11.948 0.449034,-0.1485 0.89805,-0.2977 1.346455,-0.4468 1.572618,10.9202 9.16206,13.7995 16.896633,11.8751 -0.149511,0.2185 1.115865,0.3012 0.965745,0.5197"
         style="fill:#65686c;fill-opacity:1;fill-rule:evenodd;stroke:none;stroke-width:0.0604044"
         id="path146" />
      <path
         d="m 61.866783,1948.4266 -6.042912,-0.01 0.109275,-2.0953 6.868653,0.01 c -0.008,0.074 -0.02859,0.1468 -0.06253,0.2186 l -0.87249,1.8755"
         style="fill:#65686c;fill-opacity:1;fill-rule:evenodd;stroke:none;stroke-width:0.0604044"
         id="path148" />
      <path
         d="m 61.190223,1950.1495 h -0.846879 c -0.154638,-2e-4 -0.281298,-0.1272 -0.281079,-0.2818 l 0.0021,-1.5047 c 2.22e-4,-0.1558 0.127236,-0.2825 0.281874,-0.2823 h 0.846879 c 0.155247,2e-4 0.281907,0.1272 0.281685,0.2831 l -0.0021,1.5047 c -2.16e-4,0.1546 -0.127233,0.2813 -0.28248,0.281"
         style="fill:#505256;fill-opacity:1;fill-rule:evenodd;stroke:none;stroke-width:0.0604044"
         id="path150" />
      <path
         d="m 56.601237,1948.4421 -7.148928,-0.01 c 0.399774,-1.1955 0.469749,-1.9897 0.620064,-2.7759 l 6.532794,0.01 -0.0039,2.7768"
         style="fill:#3a3a3c;fill-opacity:1;fill-rule:evenodd;stroke:none;stroke-width:0.0604044"
         id="path152" />
      <path
         d="m 77.711737,1947.9374 c -6.381192,-0.01 -11.548761,-5.1912 -11.539731,-11.5723 0.009,-6.381 5.191239,-11.5485 11.572431,-11.5395 6.381195,0.01 11.548761,5.1912 11.539734,11.5723 -0.009,6.381 -5.191239,11.5485 -11.572434,11.5395"
         style="fill:#3a3a3c;fill-opacity:1;fill-rule:evenodd;stroke:none;stroke-width:0.0604044"
         id="path154" />
      <path
         d="m 77.714068,1946.2914 c -5.472093,-0.01 -9.903771,-4.4519 -9.896031,-9.9239 0.0077,-5.472 4.451982,-9.903 9.924069,-9.8953 5.472093,0.01 9.903165,4.4513 9.895422,9.9233 -0.0077,5.472 -4.45137,9.9036 -9.92346,9.8959"
         style="fill:#505256;fill-opacity:1;fill-rule:evenodd;stroke:none;stroke-width:0.0604044"
         id="path156" />
      <path
         d="m 80.654527,1947.6166 c -0.221778,0.058 -0.445335,0.108 -0.671916,0.153 l -0.600666,-1.9754 c 0.319623,-0.056 0.633222,-0.1272 0.941412,-0.2137 l 0.33117,2.0361 m 2.271843,-0.8546 c -0.204933,0.1024 -0.41346,0.1994 -0.625008,0.2903 l -0.99774,-1.8075 c 0.299163,-0.121 0.591123,-0.2571 0.87462,-0.4065 l 0.748128,1.9237 m 2.042937,-1.3097 c -0.17901,0.1436 -0.362832,0.2816 -0.550269,0.4142 l -1.352079,-1.5597 c 0.267243,-0.1808 0.524841,-0.3743 0.771588,-0.58 l 1.13076,1.7255 m 1.727571,-1.7033 c -0.145827,0.1774 -0.297084,0.3505 -0.453156,0.5188 l -1.646697,-1.2448 c 0.223224,-0.2317 0.435576,-0.4736 0.635268,-0.7264 l 1.464585,1.4524 m 1.337823,-2.0247 c -0.105987,0.204 -0.218625,0.4044 -0.336102,0.6012 l -1.87011,-0.8755 c 0.170724,-0.2722 0.327588,-0.5535 0.471156,-0.8426 l 1.735056,1.1169 m 0.885708,-2.2597 c -0.06131,0.2223 -0.128076,0.442 -0.202077,0.6588 l -2.011428,-0.468 c 0.10977,-0.3006 0.205038,-0.608 0.283998,-0.9219 l 1.929507,0.7311 m 0.394224,-2.3944 c -0.01356,0.2301 -0.03387,0.4596 -0.06079,0.6861 l -2.063979,-0.039 c 0.04454,-0.3158 0.07278,-0.6359 0.08592,-0.9609 l 2.038848,0.314 M 89.2063,1934.646 c 0.03413,0.226 0.06099,0.4543 0.08119,0.6845 l -2.027151,0.3904 c -0.02187,-0.3244 -0.0607,-0.6434 -0.114009,-0.9582 l 2.059968,-0.1167 m -0.610998,-2.3487 c 0.08065,0.2145 0.155853,0.4314 0.223782,0.6514 l -1.902681,0.8043 c -0.08896,-0.3112 -0.193032,-0.6157 -0.311598,-0.9131 l 1.990497,-0.5426 m -1.087833,-2.1689 c 0.124146,0.1929 0.241671,0.39 0.353742,0.5907 l -1.693017,1.1815 c -0.151221,-0.2847 -0.316329,-0.561 -0.495366,-0.8282 l 1.834641,-0.944 m -1.514703,-1.8958 c 0.161055,0.1633 0.317262,0.3321 0.468642,0.505 l -1.410177,1.5076 c -0.206838,-0.2468 -0.425778,-0.4827 -0.656823,-0.7071 l 1.598358,-1.3055 m -1.874604,-1.5405 c 0.19191,0.1265 0.380196,0.2584 0.564219,0.3958 l -1.06683,1.7684 c -0.25281,-0.198 -0.516525,-0.3831 -0.7887,-0.5557 l 1.291311,-1.6085 m -2.153076,-1.1193 c 0.214332,0.084 0.425628,0.1745 0.633267,0.2709 l -0.67566,1.9512 c -0.287949,-0.1411 -0.58314,-0.2678 -0.886815,-0.3799 l 0.929208,-1.8422 m -2.339775,-0.6436 c 0.227073,0.038 0.452919,0.082 0.675744,0.132 l -0.255399,2.0491 c -0.309159,-0.077 -0.625602,-0.1392 -0.946281,-0.1855 l 0.525936,-1.9956 m -2.423256,-0.143 c 0.180015,-0.01 0.360639,-0.012 0.542457,-0.012 h 0.146775 l 0.176508,2.0564 c -0.108138,0 -0.216846,-0.01 -0.32619,-0.01 -0.214428,-3e-4 -0.427674,0.01 -0.638502,0.021 l 0.09895,-2.0609 m -2.399205,0.3603 c 0.221166,-0.057 0.445356,-0.1081 0.671328,-0.1531 l 0.600642,1.9761 c -0.319623,0.056 -0.633222,0.1271 -0.940803,0.2137 l -0.331167,-2.0367 m -2.271822,0.8551 c 0.204912,-0.103 0.412851,-0.1999 0.624399,-0.2908 l 0.998349,1.8075 c -0.299796,0.1209 -0.591738,0.2571 -0.875253,0.4064 l -0.747495,-1.9231 m -2.043549,1.3091 c 0.179598,-0.1435 0.362835,-0.2822 0.550881,-0.4148 l 1.35147,1.5603 c -0.267243,0.1803 -0.52425,0.3738 -0.771,0.58 l -1.131351,-1.7255 m -1.727592,1.7034 c 0.14583,-0.1774 0.297087,-0.3505 0.45318,-0.5189 l 1.646694,1.2449 c -0.223833,0.231 -0.435597,0.4735 -0.635289,0.7263 l -1.464585,-1.4523 m -1.337799,2.024 c 0.105987,-0.204 0.218013,-0.4044 0.336099,-0.6011 l 1.870092,0.8761 c -0.170724,0.2716 -0.327567,0.5528 -0.470523,0.8419 l -1.735668,-1.1169 m -0.885729,2.2597 c 0.06072,-0.2222 0.127485,-0.442 0.201486,-0.6587 l 2.011428,0.4679 c -0.109767,0.3007 -0.204426,0.6086 -0.284001,0.922 l -1.928913,-0.7312 m -0.394815,2.3945 c 0.01356,-0.2301 0.03387,-0.4591 0.06077,-0.6861 l 2.064,0.039 c -0.04454,0.3159 -0.07279,0.6366 -0.08592,0.9615 l -2.038848,-0.3145 m 0.108333,2.4247 c -0.03413,-0.2259 -0.06099,-0.4543 -0.08119,-0.6845 l 2.027151,-0.3903 c 0.02187,0.3238 0.06009,0.6434 0.114006,0.9581 l -2.059965,0.1167 m 0.610389,2.3488 c -0.08005,-0.2146 -0.155244,-0.4315 -0.223176,-0.6515 l 1.902687,-0.8037 c 0.08835,0.3112 0.193032,0.6152 0.311598,0.9126 l -1.991109,0.5426 m 1.087851,2.1694 c -0.123558,-0.1928 -0.241083,-0.3905 -0.353742,-0.5912 l 1.693605,-1.1809 c 0.151221,0.2847 0.316329,0.561 0.495369,0.8276 l -1.835232,0.9445 m 1.515903,1.8958 c -0.161667,-0.1639 -0.317874,-0.332 -0.469251,-0.505 l 1.410786,-1.5075 c 0.206229,0.2468 0.425781,0.4826 0.655602,0.7071 l -1.597137,1.3054 m 1.873992,1.5412 c -0.19191,-0.1271 -0.380196,-0.2585 -0.563625,-0.3965 l 1.066239,-1.7683 c 0.25281,0.1985 0.516522,0.3837 0.788697,0.5562 l -1.291311,1.6086 m 2.153079,1.1187 c -0.214335,-0.084 -0.425016,-0.1746 -0.63327,-0.2709 l 0.67566,-1.9513 c 0.287949,0.1411 0.583752,0.2678 0.886818,0.38 l -0.929208,1.8422 m 2.340975,0.6436 c -0.227664,-0.038 -0.45351,-0.082 -0.676335,-0.132 l 0.254787,-2.0492 c 0.309771,0.077 0.626196,0.1392 0.946893,0.1856 l -0.525345,1.9956 m 2.422665,0.1424 0.09956,-2.0609 c -0.212049,0.014 -0.42468,0.021 -0.639723,0.021 -0.109344,-2e-4 -0.217461,0 -0.325575,-0.01 l 0.176484,2.0564 h 0.14619 c 0.182424,3e-4 0.363048,0 0.543063,-0.012"
         style="fill:#505256;fill-opacity:1;fill-rule:evenodd;stroke:none;stroke-width:0.0604044"
         id="path158" />
      <path
         d="m 77.719006,1942.8012 c -3.545175,-0.01 -6.415782,-2.8837 -6.410769,-6.4288 0.005,-3.5451 2.883759,-6.4156 6.428934,-6.4106 3.545175,0.01 6.415785,2.8837 6.410769,6.4288 -0.005,3.5451 -2.883759,6.4156 -6.428934,6.4106"
         style="fill:#f9dd09;fill-opacity:1;fill-rule:evenodd;stroke:none;stroke-width:0.0604044"
         id="path160" />
      <path
         d="m 77.72059,1941.6819 c -2.927232,0 -5.297172,-2.3813 -5.293032,-5.3079 0.0041,-2.9272 2.380797,-5.2971 5.308029,-5.2929 2.92662,0 5.297172,2.3807 5.293032,5.3079 -0.0041,2.9265 -2.381409,5.2971 -5.308029,5.2929"
         style="fill:#eab512;fill-opacity:1;fill-rule:evenodd;stroke:none;stroke-width:0.0604044"
         id="path162" />
      <path
         d="m 77.724967,1938.5874 c -1.21776,0 -2.204592,-0.9907 -2.202867,-2.209 0.0015,-1.2184 0.99135,-2.2046 2.20911,-2.2028 1.217757,0 2.204589,0.9907 2.202867,2.209 -0.0015,1.2184 -0.99135,2.2046 -2.20911,2.2028"
         style="fill:#f9dd09;fill-opacity:1;fill-rule:evenodd;stroke:none;stroke-width:0.0604044"
         id="path164" />
      <path
         d="m 77.7232,1939.8378 c -0.188469,-3e-4 -0.340467,-0.1533 -0.340203,-0.3412 2.67e-4,-0.1878 0.152697,-0.3404 0.341166,-0.3401 0.187857,2e-4 0.340464,0.1533 0.3402,0.3411 -2.67e-4,0.1879 -0.153306,0.3405 -0.341163,0.3402"
         style="fill:#f9dd09;fill-opacity:1;fill-rule:evenodd;stroke:none;stroke-width:0.0604044"
         id="path166" />
      <path
         d="m 79.755547,1939.1811 c -0.151776,0.1103 -0.364941,0.076 -0.475269,-0.076 -0.11094,-0.1518 -0.0768,-0.3656 0.07557,-0.4759 0.152367,-0.1103 0.36555,-0.076 0.475878,0.076 0.110325,0.1524 0.07621,0.3655 -0.07618,0.4759"
         style="fill:#f9dd09;fill-opacity:1;fill-rule:evenodd;stroke:none;stroke-width:0.0604044"
         id="path168" />
      <path
         d="m 81.014428,1937.4547 c -0.05826,0.1787 -0.251079,0.2763 -0.429801,0.218 -0.178707,-0.058 -0.276297,-0.2504 -0.218058,-0.4297 0.05824,-0.1787 0.25047,-0.2763 0.429786,-0.2181 0.17811,0.058 0.276315,0.2511 0.218073,0.4298"
         style="fill:#f9dd09;fill-opacity:1;fill-rule:evenodd;stroke:none;stroke-width:0.0604044"
         id="path170" />
      <path
         d="m 81.017452,1935.3188 c 0.05773,0.1783 -0.0404,0.3708 -0.219291,0.4286 -0.178866,0.058 -0.370821,-0.04 -0.429168,-0.2193 -0.05773,-0.1789 0.04041,-0.3714 0.219885,-0.4292 0.178887,-0.058 0.370818,0.04 0.428574,0.2199"
         style="fill:#f9dd09;fill-opacity:1;fill-rule:evenodd;stroke:none;stroke-width:0.0604044"
         id="path172" />
      <path
         d="m 79.764682,1933.5883 c 0.152055,0.1107 0.185589,0.324 0.07483,0.4761 -0.111366,0.152 -0.324036,0.1856 -0.476109,0.075 -0.152058,-0.1114 -0.185595,-0.324 -0.07483,-0.4761 0.11076,-0.152 0.324039,-0.1856 0.476115,-0.075"
         style="fill:#f9dd09;fill-opacity:1;fill-rule:evenodd;stroke:none;stroke-width:0.0604044"
         id="path174" />
      <path
         d="m 77.733589,1932.9252 c 0.188451,3e-4 0.341055,0.1527 0.340788,0.3411 -2.67e-4,0.1879 -0.153303,0.3405 -0.341751,0.3402 -0.187863,-2e-4 -0.339876,-0.1533 -0.339612,-0.3411 2.67e-4,-0.1885 0.152715,-0.3405 0.340575,-0.3402"
         style="fill:#f9dd09;fill-opacity:1;fill-rule:evenodd;stroke:none;stroke-width:0.0604044"
         id="path176" />
      <path
         d="m 75.701221,1933.5819 c 0.152388,-0.1103 0.365571,-0.076 0.475899,0.076 0.110328,0.1518 0.07619,0.3656 -0.07618,0.4753 -0.152391,0.1109 -0.365574,0.077 -0.475902,-0.076 -0.110307,-0.1524 -0.07619,-0.3656 0.07618,-0.4759"
         style="fill:#f9dd09;fill-opacity:1;fill-rule:evenodd;stroke:none;stroke-width:0.0604044"
         id="path178" />
      <path
         d="m 74.442967,1935.3083 c 0.05824,-0.1787 0.25047,-0.2769 0.429786,-0.2186 0.17811,0.059 0.276297,0.251 0.218055,0.4297 -0.05885,0.1793 -0.251061,0.2769 -0.429783,0.2181 -0.178725,-0.058 -0.276906,-0.2505 -0.218058,-0.4292"
         style="fill:#f9dd09;fill-opacity:1;fill-rule:evenodd;stroke:none;stroke-width:0.0604044"
         id="path180" />
      <path
         d="m 74.439337,1937.4442 c -0.05773,-0.1789 0.0404,-0.3709 0.21927,-0.4292 0.178887,-0.058 0.37143,0.041 0.429165,0.2199 0.05775,0.1789 -0.04039,0.3708 -0.219273,0.4285 -0.178866,0.058 -0.37143,-0.04 -0.429162,-0.2192"
         style="fill:#f9dd09;fill-opacity:1;fill-rule:evenodd;stroke:none;stroke-width:0.0604044"
         id="path182" />
      <path
         d="m 75.692719,1939.1747 c -0.152079,-0.1107 -0.185592,-0.324 -0.07483,-0.4761 0.11076,-0.152 0.324039,-0.1856 0.475485,-0.075 0.152664,0.1107 0.185589,0.324 0.07483,0.4761 -0.110757,0.152 -0.324036,0.1856 -0.475479,0.075"
         style="fill:#f9dd09;fill-opacity:1;fill-rule:evenodd;stroke:none;stroke-width:0.0604044"
         id="path184" />
      <path
         d="m 77.896636,1924.8343 c 0.0061,0 0.01263,0 0.01872,0 l -3e-4,0.2175 -0.01842,-0.2175 m -0.697077,0 -0.07904,1.6525 c -0.390261,0.023 -0.773289,0.07 -1.149714,0.1373 l -0.481599,-1.5851 c 0.5571,-0.1091 1.12863,-0.1784 1.710357,-0.2047 m -2.388927,0.3596 0.265896,1.6337 c -0.374667,0.104 -0.740289,0.2291 -1.095684,0.3742 l -0.800721,-1.4496 c 0.524628,-0.2252 1.069752,-0.4123 1.630509,-0.5583 m -2.260956,0.8515 0.599445,1.5424 c -0.343338,0.1795 -0.674658,0.3784 -0.993285,0.5948 l -1.084305,-1.2513 c 0.467988,-0.3304 0.961911,-0.6269 1.478145,-0.8859 m -2.034486,1.3043 0.907758,1.3839 c -0.29814,0.246 -0.581229,0.509 -0.84861,0.7877 l -1.320846,-0.9991 c 0.390819,-0.4211 0.812388,-0.8131 1.261698,-1.1725 m -1.719099,1.6967 1.175034,1.1651 c -0.240231,0.3017 -0.462963,0.6179 -0.667608,0.9462 l -1.499463,-0.7028 c 0.296073,-0.4949 0.627756,-0.965 0.992037,-1.4085 m -1.331157,2.0163 1.391658,0.8953 c -0.172026,0.3441 -0.324153,0.6996 -0.455742,1.0649 l -1.613499,-0.375 c 0.187434,-0.5482 0.41409,-1.0776 0.677583,-1.5852 m -0.881481,2.25 1.547358,0.5863 c -0.09536,0.3707 -0.170202,0.75 -0.222102,1.1364 l -1.655658,-0.031 c 0.04341,-0.3666 0.104331,-0.729 0.180951,-1.0846 0.04438,-0.2047 0.09419,-0.4064 0.149451,-0.6069 m -0.391788,2.3842 1.636032,0.2524 c -0.0063,0.1371 -0.0095,0.2761 -0.0097,0.415 -3e-4,0.2494 0.0091,0.4971 0.02673,0.7418 l -1.62654,0.3136 c -0.03091,-0.3486 -0.04674,-0.7008 -0.04624,-1.0578 3e-4,-0.2235 0.0067,-0.4451 0.01968,-0.665 m 1.761759,2.3202 c 0.06349,0.3843 0.149937,0.7613 0.25695,1.1293 l -1.526154,0.6448 c -0.167757,-0.5445 -0.296838,-1.1052 -0.383004,-1.6804 l 1.652208,-0.094 m 0.553512,1.9965 c 0.142035,0.3615 0.30525,0.7114 0.487197,1.0506 l -1.358049,0.9476 c -0.278955,-0.4993 -0.522252,-1.0216 -0.726276,-1.5625 l 1.597128,-0.4357 m 0.958449,1.8371 c 0.213978,0.3222 0.446709,0.6318 0.695763,0.9258 l -1.131288,1.2088 c -0.378123,-0.4318 -0.724806,-0.892 -1.035807,-1.3768 l 1.471332,-0.7578 m 1.319391,1.5977 c 0.27507,0.2704 0.566481,0.5245 0.871791,0.7617 l -0.855525,1.4177 c -0.460422,-0.3449 -0.894183,-0.7237 -1.297725,-1.1326 l 1.281459,-1.0468 m 1.621281,1.2901 c 0.324681,0.2071 0.662064,0.396 1.01097,0.565 l -0.542232,1.565 c -0.523965,-0.243 -1.026756,-0.524 -1.504719,-0.84 l 1.035981,-1.29 m 1.853724,0.9256 c 0.359214,0.134 0.729336,0.2481 1.106736,0.3405 l -0.204081,1.6433 c -0.566409,-0.1283 -1.116459,-0.2982 -1.647738,-0.5061 l 0.745083,-1.4777 m 2.006538,0.5169 c 0.378042,0.055 0.762786,0.09 1.152975,0.1025 l 0.142044,1.6493 c -0.584115,-0.01 -1.156674,-0.06 -1.716504,-0.1517 l 0.421485,-1.6001"
         style="fill:#282626;fill-opacity:1;fill-rule:nonzero;stroke:none;stroke-width:0.0604044"
         id="path1060" />
      <path
         d="m 77.120518,1926.4901 -0.01737,0.3569 c 0.210831,-0.014 0.424071,-0.021 0.638505,-0.021 0.05679,10e-5 0.114162,0 0.170949,0 l -0.0044,3.1356 c -0.05678,0 -0.114162,0 -0.170949,0 -3.545175,-0.01 -6.423918,2.8655 -6.428934,6.4106 -0.005,3.5451 2.865594,6.4239 6.410769,6.4289 0.05679,1e-4 0.114165,0 0.170955,0 l -0.0044,3.1361 c -0.05679,0 -0.113577,0 -0.170952,0 -0.109347,-10e-5 -0.217461,0 -0.325578,-0.01 v 0 0 l 0.0303,0.3565 c -0.390192,-0.012 -0.774933,-0.047 -1.152975,-0.1025 l 0.09109,-0.3454 c -0.3207,-0.046 -0.637122,-0.1084 -0.94689,-0.1856 l -0.044,0.3545 c -0.3774,-0.092 -0.747528,-0.2064 -1.106739,-0.3404 l 0.160518,-0.3187 c -0.303066,-0.1122 -0.598866,-0.2389 -0.886818,-0.38 l -0.116451,0.3381 c -0.348909,-0.169 -0.686292,-0.358 -1.010973,-0.565 l 0.223269,-0.2782 c -0.272178,-0.1725 -0.53589,-0.3577 -0.788703,-0.5562 l -0.184056,0.306 c -0.30531,-0.2372 -0.596721,-0.4913 -0.871791,-0.7617 l 0.276381,-0.2261 c -0.229821,-0.2245 -0.449373,-0.4604 -0.655602,-0.7071 l -0.244407,0.2612 c -0.249051,-0.2939 -0.481788,-0.6035 -0.69576,-0.9258 l 0.317961,-0.1632 c -0.179037,-0.2666 -0.344148,-0.5429 -0.495366,-0.8276 l -0.29385,0.2043 c -0.181944,-0.3391 -0.345159,-0.6891 -0.487197,-1.0505 l 0.344439,-0.094 c -0.118569,-0.2974 -0.223248,-0.6014 -0.311601,-0.9125 l -0.329403,0.139 c -0.10701,-0.368 -0.193458,-0.7451 -0.256944,-1.1293 l 0.356415,-0.02 c -0.05392,-0.3148 -0.09213,-0.6344 -0.114006,-0.9582 l -0.351054,0.067 c -0.01776,-0.2447 -0.02709,-0.4923 -0.02673,-0.7418 1.95e-4,-0.139 0.0035,-0.2779 0.0097,-0.415 l 0.352692,0.054 c 0.01308,-0.325 0.04139,-0.6457 0.08592,-0.9615 l -0.357603,-0.01 c 0.0519,-0.3865 0.126744,-0.7658 0.222108,-1.1365 l 0.334458,0.1267 c 0.07957,-0.3134 0.174231,-0.6213 0.283998,-0.922 l -0.34842,-0.081 c 0.131589,-0.3653 0.283713,-0.7208 0.455742,-1.0649 l 0.301161,0.1937 c 0.142956,-0.2891 0.299802,-0.5704 0.470523,-0.8419 l -0.324759,-0.1521 c 0.204642,-0.3283 0.427377,-0.6445 0.667608,-0.9462 l 0.253344,0.2517 c 0.199695,-0.2529 0.411459,-0.4954 0.635292,-0.7264 l -0.28542,-0.2155 c 0.267378,-0.2787 0.550464,-0.5416 0.848607,-0.7876 l 0.195879,0.2992 c 0.24675,-0.2062 0.503754,-0.3997 0.770997,-0.58 l -0.233988,-0.2703 c 0.31863,-0.2164 0.64995,-0.4153 0.993285,-0.5948 l 0.129402,0.3336 c 0.283515,-0.1494 0.575457,-0.2855 0.87525,-0.4065 l -0.172929,-0.3131 c 0.355395,-0.1451 0.721017,-0.2702 1.095681,-0.3741 l 0.05749,0.3522 c 0.307578,-0.087 0.621177,-0.158 0.9408,-0.2137 l -0.104016,-0.3421 c 0.376425,-0.068 0.759453,-0.1137 1.149711,-0.1372"
         style="fill:#363637;fill-opacity:1;fill-rule:nonzero;stroke:none;stroke-width:0.0604044"
         id="path1062" />
      <path
         d="m 77.744437,1924.8256 c 0.05133,1e-4 0.101481,0.01 0.152199,0.01 l 0.01842,0.2175 -0.0027,1.7765 c -0.05678,0 -0.114159,0 -0.170946,0 -0.214431,0 -0.427677,0.01 -0.638505,0.021 l 0.01737,-0.357 0.07904,-1.6525 c 0.18063,-0.01 0.362451,-0.012 0.544881,-0.012 m -2.255235,0.2167 v 0 l 0.481599,1.585 0.104013,0.3421 c -0.31962,0.056 -0.633219,0.1271 -0.9408,0.2137 l -0.05749,-0.3523 -0.265896,-1.6337 c 0.224202,-0.058 0.450177,-0.1099 0.678573,-0.1548 m -2.309082,0.7131 v 0 l 0.800721,1.4496 0.172932,0.3131 c -0.299793,0.121 -0.591735,0.2571 -0.875253,0.4065 l -0.129399,-0.3336 -0.599445,-1.5423 c 0.206724,-0.1042 0.416472,-0.2018 0.630444,-0.2933 m -2.108592,1.1791 v 0 l 1.084308,1.2513 0.233988,0.2703 c -0.267243,0.1802 -0.524247,0.3738 -0.770997,0.58 l -0.195882,-0.2993 -0.907755,-1.3839 c 0.181431,-0.1447 0.367068,-0.2846 0.556338,-0.4184 m -1.818039,1.5909 v 0 l 1.320846,0.9991 0.285423,0.2155 c -0.22383,0.231 -0.435597,0.4735 -0.635289,0.7263 l -0.253347,-0.2516 -1.175031,-1.165 c 0.147033,-0.1792 0.300105,-0.3542 0.457398,-0.5243 m -1.449432,1.9327 v 0 l 1.499457,0.7028 0.324762,0.152 c -0.170727,0.2716 -0.32757,0.5529 -0.470526,0.842 l -0.301158,-0.1937 -1.391658,-0.8953 c 0.106602,-0.2059 0.219831,-0.4093 0.339123,-0.6078 m -1.016709,2.193 v 0 l 1.613499,0.375 0.348423,0.081 c -0.109767,0.3007 -0.204429,0.6086 -0.283998,0.922 l -0.334461,-0.1267 -1.547361,-0.5863 c 0.06132,-0.2246 0.129894,-0.4462 0.203898,-0.6648 m -0.534297,2.3562 v 0 l 1.655655,0.031 0.357603,0.01 c -0.04454,0.3158 -0.07278,0.6366 -0.08592,0.9615 l -0.352689,-0.054 -1.636035,-0.2524 c 0.01356,-0.2332 0.03388,-0.4639 0.06139,-0.6928 m 1.942782,2.0348 c 0.02187,0.3238 0.06009,0.6433 0.114006,0.9581 l -0.356418,0.02 -1.652211,0.094 c -0.03471,-0.2278 -0.06216,-0.4585 -0.08297,-0.6911 l 1.62654,-0.3136 0.351054,-0.067 m 0.343938,1.9685 c 0.08835,0.3112 0.193032,0.6152 0.311598,0.9125 l -0.344436,0.094 -1.597131,0.4356 c -0.08124,-0.2163 -0.157026,-0.4363 -0.225585,-0.6581 l 1.526151,-0.6448 0.329403,-0.139 m 0.748209,1.8524 c 0.151218,0.2847 0.316329,0.561 0.495366,0.8276 l -0.317961,0.1633 -1.471338,0.7578 c -0.124773,-0.1953 -0.244677,-0.3942 -0.357963,-0.5967 l 1.358046,-0.9477 0.29385,-0.2043 m 1.117569,1.6554 c 0.206232,0.2468 0.425784,0.4827 0.655605,0.7071 l -0.276381,0.2261 -1.281462,1.0468 c -0.162843,-0.1651 -0.320877,-0.3351 -0.473454,-0.5098 l 1.131288,-1.209 0.244404,-0.2612 m 1.435071,1.3889 c 0.252813,0.1985 0.516525,0.3837 0.788703,0.5563 l -0.223269,0.2781 -1.035978,1.29 c -0.193704,-0.1277 -0.383796,-0.2615 -0.569037,-0.4007 l 0.855525,-1.4177 0.184056,-0.306 m 1.692858,1.0614 c 0.287949,0.1411 0.583749,0.2677 0.886818,0.3799 l -0.160518,0.3187 -0.745086,1.4777 c -0.216732,-0.085 -0.429834,-0.1764 -0.639897,-0.2734 l 0.542229,-1.5649 0.116454,-0.338 m 1.87704,0.6845 c 0.309768,0.077 0.62619,0.1393 0.946887,0.1856 l -0.09109,0.3454 -0.421482,1.6001 c -0.229497,-0.038 -0.457761,-0.082 -0.682395,-0.1333 l 0.204081,-1.6432 0.044,-0.3546 m 1.978473,0.2771 c 0.108117,0 0.216231,0.01 0.325572,0.01 0.05738,0 0.114168,0 0.170955,0 l -0.003,1.9933 c -0.0574,0 -0.112974,0.01 -0.170961,0.01 -0.05014,-10e-5 -0.100878,0 -0.150399,0 l -0.142044,-1.6492 -0.0303,-0.3564"
         style="fill:#363637;fill-opacity:1;fill-rule:nonzero;stroke:none;stroke-width:0.0604044"
         id="path1064" />
      <path
         d="m 77.737171,1929.9618 c 0.05679,10e-5 0.114162,0 0.170949,0 l -0.0015,1.1198 c -0.05679,0 -0.113574,0 -0.170949,0 -2.927235,0 -5.303889,2.3658 -5.308029,5.293 -0.0041,2.9265 2.365797,5.3038 5.293029,5.3079 0.05738,1e-4 0.114165,0 0.170955,0 l -0.0015,1.1199 c -0.05679,0 -0.114168,0 -0.170955,0 -3.545175,-0.01 -6.415788,-2.8837 -6.410769,-6.4288 0.005,-3.5451 2.883759,-6.4156 6.428934,-6.4106"
         style="fill:#a3931f;fill-opacity:1;fill-rule:nonzero;stroke:none;stroke-width:0.0604044"
         id="path1066" />
      <path
         d="m 77.735587,1931.0811 c 0.05738,0 0.114162,0 0.170949,0 l -0.0027,1.887 c -0.05009,-0.029 -0.108057,-0.045 -0.170277,-0.046 -0.18786,-2e-4 -0.340308,0.1518 -0.340575,0.3402 -2.64e-4,0.1879 0.151752,0.3409 0.339612,0.3412 0.06222,10e-5 0.120231,-0.017 0.170406,-0.045 l -9e-4,0.621 c -0.05617,0 -0.113565,-0.01 -0.170943,-0.01 -1.217757,0 -2.207385,0.9845 -2.209107,2.2028 -0.0015,1.2184 0.985107,2.2074 2.202864,2.2091 0.05738,10e-5 0.114777,0 0.170961,-0.01 l -9e-4,0.6216 c -0.05009,-0.029 -0.108669,-0.046 -0.170889,-0.046 -0.188469,-2e-4 -0.340896,0.1523 -0.341163,0.3402 -2.67e-4,0.1879 0.151731,0.3409 0.3402,0.3412 0.06222,10e-5 0.12084,-0.017 0.171015,-0.046 l -0.0027,1.8876 c -0.05679,0 -0.113583,0 -0.170955,0 -2.927235,0 -5.297172,-2.3814 -5.293032,-5.3079 0.0041,-2.9272 2.380797,-5.2971 5.308029,-5.293 m -1.834686,3.1173 c 0.06946,10e-5 0.139566,-0.021 0.20004,-0.065 0.152367,-0.1096 0.186504,-0.3234 0.07618,-0.4752 -0.06693,-0.092 -0.170751,-0.141 -0.275862,-0.1411 -0.06946,-10e-5 -0.139563,0.021 -0.200037,0.065 -0.152367,0.1103 -0.186486,0.3235 -0.07618,0.4759 0.06693,0.092 0.170145,0.1404 0.275862,0.1405 m -1.134792,1.5562 c 0.143751,2e-4 0.277392,-0.091 0.324699,-0.2351 0.05824,-0.1787 -0.03995,-0.3709 -0.218055,-0.4298 -0.03502,-0.011 -0.07064,-0.017 -0.10509,-0.017 -0.143745,-10e-5 -0.27798,0.091 -0.324696,0.2352 -0.05885,0.1787 0.03933,0.3709 0.218058,0.4292 0.03502,0.012 0.07064,0.017 0.105084,0.017 m -0.0027,1.9257 c 0.03504,10e-5 0.07067,-0.01 0.105726,-0.017 0.178887,-0.058 0.277026,-0.2497 0.21927,-0.4286 -0.04628,-0.1444 -0.180261,-0.2358 -0.32403,-0.236 -0.03442,0 -0.07008,0.01 -0.105135,0.016 -0.178866,0.058 -0.277002,0.2503 -0.219267,0.4292 0.04691,0.1444 0.180282,0.2358 0.323436,0.236 m 1.129797,1.5594 c 0.105087,2e-4 0.209067,-0.048 0.275628,-0.1397 0.11076,-0.1521 0.07784,-0.3654 -0.07483,-0.4761 -0.06033,-0.044 -0.12978,-0.065 -0.199242,-0.066 -0.105702,-2e-4 -0.209682,0.049 -0.276243,0.1403 -0.110754,0.1521 -0.07724,0.3654 0.07483,0.4761 0.06035,0.044 0.130368,0.065 0.199854,0.065"
         style="fill:#98771f;fill-opacity:1;fill-rule:nonzero;stroke:none;stroke-width:0.0604044"
         id="path1068" />
      <path
         d="m 77.73121,1934.1756 c 0.05738,0 0.114771,0 0.17094,0.01 l -0.0062,4.3986 c -0.05618,0 -0.113586,0.01 -0.170964,0.01 -1.217757,0 -2.204589,-0.9907 -2.202864,-2.2091 0.0015,-1.2183 0.99135,-2.2045 2.209107,-2.2028"
         style="fill:#a3931f;fill-opacity:1;fill-rule:nonzero;stroke:none;stroke-width:0.0604044"
         id="path1070" />
      <path
         d="m 77.724163,1939.1565 c 0.06222,0 0.120792,0.017 0.170886,0.046 l -9e-4,0.5896 c -0.05017,0.029 -0.108795,0.046 -0.171015,0.046 -0.188469,-3e-4 -0.340467,-0.1533 -0.3402,-0.3412 2.64e-4,-0.1878 0.152694,-0.3404 0.341163,-0.3401"
         style="fill:#a3931f;fill-opacity:1;fill-rule:nonzero;stroke:none;stroke-width:0.0604044"
         id="path1072" />
      <path
         d="m 77.733589,1932.9252 c 0.06222,1e-4 0.120183,0.017 0.170277,0.046 l -9e-4,0.5908 c -0.05018,0.028 -0.108186,0.045 -0.170406,0.045 -0.187863,-2e-4 -0.339876,-0.1533 -0.339612,-0.3411 2.67e-4,-0.1885 0.152715,-0.3405 0.340575,-0.3402"
         style="fill:#a3931f;fill-opacity:1;fill-rule:nonzero;stroke:none;stroke-width:0.0604044"
         id="path1074" />
      <path
         d="m 75.901255,1933.517 c 0.105111,10e-5 0.208932,0.049 0.275865,0.1411 0.110328,0.1518 0.07619,0.3656 -0.07618,0.4753 -0.06047,0.044 -0.130575,0.065 -0.20004,0.065 -0.105717,-10e-5 -0.208929,-0.049 -0.275862,-0.1405 -0.110307,-0.1524 -0.07619,-0.3656 0.07618,-0.4759 0.06047,-0.044 0.130572,-0.065 0.200034,-0.065"
         style="fill:#a3931f;fill-opacity:1;fill-rule:nonzero;stroke:none;stroke-width:0.0604044"
         id="path1076" />
      <path
         d="m 74.767666,1935.0732 c 0.03445,0 0.07006,0.01 0.105087,0.016 0.17811,0.059 0.276297,0.2511 0.218055,0.4298 -0.0473,0.1443 -0.180948,0.2353 -0.324699,0.2351 -0.03445,0 -0.07006,-0.01 -0.105084,-0.017 -0.178725,-0.058 -0.276906,-0.2504 -0.218058,-0.4291 0.04672,-0.1443 0.180951,-0.2354 0.324699,-0.2352"
         style="fill:#a3931f;fill-opacity:1;fill-rule:nonzero;stroke:none;stroke-width:0.0604044"
         id="path1078" />
      <path
         d="m 74.763739,1936.9989 c 0.143769,2e-4 0.277746,0.092 0.324033,0.236 0.05775,0.1789 -0.04039,0.3708 -0.219273,0.4285 -0.03505,0.012 -0.07069,0.017 -0.105723,0.017 -0.143157,-2e-4 -0.276522,-0.091 -0.323439,-0.236 -0.05773,-0.1789 0.0404,-0.3708 0.21927,-0.4292 0.03505,-0.011 0.07071,-0.016 0.105132,-0.016"
         style="fill:#a3931f;fill-opacity:1;fill-rule:nonzero;stroke:none;stroke-width:0.0604044"
         id="path1080" />
      <path
         d="m 75.894127,1938.5583 c 0.06946,10e-5 0.138915,0.021 0.199242,0.066 0.152664,0.1107 0.185589,0.324 0.07483,0.4761 -0.06656,0.092 -0.170538,0.1399 -0.275628,0.1397 -0.06948,-10e-5 -0.139506,-0.021 -0.199851,-0.065 -0.152079,-0.1107 -0.185592,-0.324 -0.07483,-0.4761 0.06656,-0.092 0.170541,-0.1405 0.276243,-0.1403"
         style="fill:#a3931f;fill-opacity:1;fill-rule:nonzero;stroke:none;stroke-width:0.0604044"
         id="path1082" />
      <path
         d="m 33.486197,1924.8434 -0.09958,2.0602 c -0.485694,0.029 -0.96357,0.087 -1.432434,0.1707 l -0.600663,-1.9755 c 0.694251,-0.1361 1.407156,-0.2226 2.132679,-0.2554 m -2.978004,0.4482 0.331146,2.0361 c -0.467115,0.1297 -0.922793,0.2856 -1.36581,0.4667 l -0.998351,-1.8068 c 0.654577,-0.2806 1.333263,-0.514 2.033015,-0.696 m -2.818808,1.0615 0.747519,1.9225 c -0.428591,0.2235 -0.84151,0.4718 -1.238141,0.7418 l -1.351489,-1.5597 c 0.583491,-0.4117 1.198948,-0.7818 1.842111,-1.1046 m -2.53569,1.6261 1.130761,1.7249 c -0.37131,0.3064 -0.724543,0.6345 -1.057274,0.9819 l -1.646085,-1.2448 c 0.487006,-0.5255 1.012618,-1.0146 1.572598,-1.462 m -2.143754,2.1154 1.464586,1.4517 c -0.298935,0.3759 -0.577344,0.77 -0.831625,1.1797 l -1.869525,-0.8754 c 0.368759,-0.6169 0.782746,-1.2034 1.236564,-1.756 m -1.659256,2.5128 1.73508,1.1163 c -0.21445,0.4292 -0.404136,0.8717 -0.568489,1.3275 l -2.010818,-0.4679 c 0.232917,-0.6829 0.515936,-1.3433 0.844227,-1.9759 m -1.09851,2.8042 1.928916,0.7318 c -0.11905,0.462 -0.212133,0.9348 -0.277456,1.4167 l -2.063389,-0.04 c 0.02263,-0.1903 0.04886,-0.3793 0.07873,-0.5671 0.08349,-0.5242 0.194761,-1.0381 0.333199,-1.5417 m -0.488047,2.973 2.038219,0.314 c -0.007,0.1715 -0.01066,0.3443 -0.01091,0.5176 -4.5e-4,0.3117 0.01052,0.6198 0.03251,0.9255 l -2.027129,0.3904 c -0.03865,-0.4344 -0.05797,-0.8742 -0.05734,-1.3188 3.9e-4,-0.2784 0.0087,-0.5545 0.02473,-0.8287 m 2.195268,2.8923 c 0.07965,0.4791 0.187108,0.9486 0.320563,1.4072 l -1.902094,0.8038 c -0.209241,-0.6787 -0.370129,-1.3778 -0.477847,-2.0943 l 2.059378,-0.1167 m 0.689929,2.489 c 0.177559,0.4502 0.380488,0.8866 0.60824,1.3092 l -1.693019,1.1809 c -0.348266,-0.622 -0.651791,-1.273 -0.905737,-1.9481 l 1.990516,-0.542 m 1.195193,2.2898 c 0.266419,0.4014 0.556422,0.7872 0.866982,1.1537 l -1.410174,1.5069 c -0.470993,-0.5382 -0.902689,-1.1115 -1.29084,-1.7161 l 1.834032,-0.9445 m 1.645029,1.9914 c 0.342627,0.337 0.705812,0.654 1.085955,0.9499 l -1.065628,1.7671 c -0.574466,-0.4303 -1.115015,-0.9028 -1.617465,-1.4121 l 1.597138,-1.3049 m 2.0207,1.6084 c 0.404348,0.2579 0.825025,0.4935 1.260247,0.7037 l -0.675663,1.9513 c -0.653163,-0.3029 -1.280276,-0.6536 -1.875914,-1.047 l 1.29133,-1.608 m 2.310671,1.1534 c 0.447954,0.1673 0.909252,0.3099 1.380255,0.4248 l -0.255396,2.0485 c -0.705291,-0.1598 -1.391809,-0.3716 -2.053478,-0.6311 l 0.928619,-1.8422 m 2.50167,0.6444 c 0.471069,0.07 0.950616,0.1125 1.437465,0.1277 l 0.175878,2.0564 c -0.727254,-0.01 -1.441164,-0.075 -2.138664,-0.1891 l 0.525321,-1.995"
         style="fill:#282626;fill-opacity:1;fill-rule:nonzero;stroke:none;stroke-width:0.0604044"
         id="path1084" />
      <path
         d="m 33.386615,1926.9036 -0.02118,0.4451 c 0.263388,-0.017 0.528579,-0.027 0.795567,-0.027 0,0 0.0018,0 0.0018,0 l -0.0055,3.9088 c 0,0 -0.0018,0 -0.0018,0 -4.419829,-0.01 -8.008122,3.5724 -8.014375,7.9915 -0.0063,4.4192 3.571901,8.008 7.991731,8.0143 0,0 0,0 0.0018,0 l -0.0055,3.9087 c 0,0 -0.0018,0 -0.0018,0 -0.135912,-2e-4 -0.270603,0 -0.405288,-0.01 v 0 0 l 0.03803,0.444 c -0.486852,-0.015 -0.966396,-0.058 -1.437462,-0.1276 l 0.113568,-0.4306 c -0.399807,-0.057 -0.794136,-0.1346 -1.179996,-0.2306 l -0.05499,0.4415 c -0.471003,-0.1148 -0.932301,-0.2574 -1.380256,-0.4248 l 0.200506,-0.3965 c -0.377944,-0.1401 -0.746805,-0.2983 -1.105348,-0.4739 l -0.145585,0.4207 c -0.435219,-0.2102 -0.855897,-0.4457 -1.260246,-0.7036 l 0.278345,-0.3476 c -0.339179,-0.2142 -0.66806,-0.4455 -0.983021,-0.6924 l -0.230069,0.3815 c -0.380143,-0.296 -0.743328,-0.613 -1.085955,-0.9499 l 0.344703,-0.2816 c -0.287121,-0.2801 -0.560346,-0.5741 -0.817844,-0.8819 l -0.304905,0.3258 c -0.31056,-0.3665 -0.600563,-0.7523 -0.866983,-1.1538 l 0.395948,-0.2042 c -0.222427,-0.3319 -0.428538,-0.6765 -0.617096,-1.0313 l -0.365805,0.255 c -0.227752,-0.4226 -0.430681,-0.859 -0.608239,-1.3092 l 0.429641,-0.1172 c -0.147477,-0.3705 -0.278013,-0.75 -0.388617,-1.138 l -0.410391,0.1734 c -0.133455,-0.4586 -0.240912,-0.9281 -0.320563,-1.4072 l 0.444609,-0.025 c -0.06649,-0.3922 -0.114858,-0.7903 -0.142079,-1.1944 l -0.438059,0.084 c -0.02191,-0.3057 -0.03295,-0.6137 -0.03251,-0.9254 2.46e-4,-0.1734 0.0042,-0.3461 0.01091,-0.5177 l 0.440875,0.068 c 0.01563,-0.4047 0.05127,-0.8045 0.106805,-1.1977 l -0.446391,-0.01 c 0.06532,-0.4819 0.158406,-0.9547 0.277456,-1.4166 l 0.416576,0.1576 c 0.09962,-0.3907 0.217338,-0.7741 0.354394,-1.149 l -0.434785,-0.1009 c 0.164353,-0.4558 0.354039,-0.8983 0.568489,-1.3275 l 0.374766,0.2416 c 0.178706,-0.3604 0.374304,-0.711 0.586816,-1.0502 l -0.404446,-0.189 c 0.254281,-0.4098 0.532691,-0.8039 0.831625,-1.1797 l 0.316087,0.3139 c 0.248715,-0.3156 0.513098,-0.6172 0.791989,-0.9056 l -0.35542,-0.2687 c 0.332731,-0.3474 0.685963,-0.6755 1.057274,-0.9818 l 0.244119,0.373 c 0.307819,-0.2569 0.628314,-0.4981 0.962071,-0.7229 l -0.291883,-0.3368 c 0.396631,-0.2701 0.809549,-0.5184 1.238139,-0.7419 l 0.16129,0.4158 c 0.353644,-0.1861 0.717515,-0.3553 1.091028,-0.5058 l -0.21569,-0.3912 c 0.443017,-0.1811 0.898692,-0.3369 1.36581,-0.4667 l 0.07187,0.4398 c 0.383118,-0.1082 0.774669,-0.197 1.172238,-0.2671 l -0.12927,-0.426 c 0.468864,-0.084 0.946743,-0.1419 1.432437,-0.1708"
         style="fill:#363637;fill-opacity:1;fill-rule:nonzero;stroke:none;stroke-width:0.0604044"
         id="path1086" />
      <path
         d="m 34.165163,1924.8286 h 0.0018 l -0.0035,2.4935 c 0,0 -0.0018,0 -0.0018,0 -0.266988,0 -0.532179,0.01 -0.79557,0.027 l 0.02115,-0.4452 0.09958,-2.0602 c 0.225312,-0.01 0.451248,-0.015 0.678966,-0.015 m -2.811645,0.2703 0.600663,1.9754 0.12927,0.4261 c -0.397569,0.07 -0.789123,0.1589 -1.172241,0.2671 l -0.07187,-0.4398 -0.331146,-2.0361 c 0.278562,-0.072 0.560148,-0.1363 0.845325,-0.1927 m -2.87834,0.8887 0.998351,1.8069 0.21569,0.3911 c -0.37351,0.1505 -0.737384,0.3197 -1.091028,0.5058 l -0.161287,-0.4158 -0.747519,-1.9225 c 0.257506,-0.1295 0.519845,-0.2517 0.785793,-0.3655 m -2.627904,1.4701 1.351489,1.5598 0.291883,0.3368 c -0.333757,0.2249 -0.654251,0.466 -0.962071,0.7229 l -0.244119,-0.373 -1.130761,-1.725 c 0.225574,-0.1808 0.45657,-0.3545 0.693579,-0.5215 m -2.266177,1.9835 1.646085,1.2448 0.35542,0.2687 c -0.278891,0.2884 -0.543273,0.59 -0.791988,0.9056 l -0.316087,-0.314 -1.464586,-1.4517 c 0.183963,-0.2232 0.374533,-0.4416 0.571156,-0.6534 m -1.80772,2.4094 1.869525,0.8755 0.404445,0.189 c -0.212511,0.3392 -0.40811,0.6898 -0.586815,1.0502 l -0.374767,-0.2416 -1.73508,-1.1163 c 0.133267,-0.2565 0.274361,-0.5094 0.422692,-0.7568 m -1.266919,2.7326 2.010818,0.468 0.434785,0.1009 c -0.137056,0.3749 -0.254774,0.7583 -0.354394,1.149 l -0.416576,-0.1576 -1.928916,-0.7318 c 0.07651,-0.2796 0.161463,-0.5555 0.254283,-0.8285 m -0.666212,2.9372 v 0 l 2.063389,0.04 0.446391,0.01 c -0.05553,0.3932 -0.09114,0.793 -0.106804,1.1977 l -0.440875,-0.068 -2.038219,-0.314 c 0.01669,-0.2905 0.0419,-0.5786 0.07612,-0.8643 m 2.421679,2.5368 c 0.02722,0.4041 0.07559,0.8023 0.142079,1.1944 l -0.444608,0.025 -2.059378,0.1167 c -0.04249,-0.2846 -0.07712,-0.5722 -0.103281,-0.8616 l 2.027129,-0.3903 0.438059,-0.085 m 0.428425,2.4536 c 0.110604,0.3879 0.241139,0.7674 0.388616,1.1379 l -0.429641,0.1172 -1.990516,0.542 c -0.101718,-0.2695 -0.195556,-0.5433 -0.280945,-0.8201 l 1.902095,-0.8037 0.410391,-0.1733 m 0.93302,2.3093 c 0.188557,0.3548 0.394669,0.6995 0.617096,1.0314 l -0.395948,0.2042 -1.834032,0.9445 c -0.155509,-0.2436 -0.30436,-0.4915 -0.44594,-0.7442 l 1.693018,-1.1809 0.365806,-0.255 m 1.393036,2.0636 c 0.257498,0.3078 0.530722,0.6018 0.817843,0.8818 l -0.344702,0.2816 -1.597138,1.3049 c -0.203275,-0.2063 -0.4005,-0.418 -0.591083,-0.6357 l 1.410174,-1.5069 0.304906,-0.3257 m 1.789165,1.7319 c 0.314961,0.2469 0.643841,0.4781 0.98302,0.6924 l -0.278345,0.3475 -1.29133,1.6079 c -0.242,-0.1591 -0.477947,-0.3256 -0.709042,-0.4993 l 1.065628,-1.7671 0.230069,-0.3814 m 2.110506,1.3228 c 0.358544,0.1757 0.727404,0.3338 1.105348,0.4739 l -0.200505,0.3966 -0.928619,1.8422 c -0.269871,-0.1061 -0.535475,-0.2194 -0.79747,-0.3406 l 0.675661,-1.9513 0.145585,-0.4208 m 2.340091,0.8538 c 0.385857,0.096 0.780186,0.1733 1.179996,0.2306 l -0.113571,0.4305 -0.525327,1.995 c -0.286857,-0.047 -0.570693,-0.1023 -0.85149,-0.1661 l 0.255399,-2.0485 0.05499,-0.4415 m 2.465859,0.3448 c 0.134685,0.01 0.269376,0.01 0.405291,0.01 0,0 0.0018,0 0.0018,0 l -0.0035,2.4934 h -0.0018 c -0.06283,0 -0.125637,0 -0.188463,0 l -0.175878,-2.0564 -0.03803,-0.444"
         style="fill:#363637;fill-opacity:1;fill-rule:nonzero;stroke:none;stroke-width:0.0604044"
         id="path1088" />
      <path
         d="m 34.156103,1931.2308 c 0,0 0,0 0.0018,0 l -0.0018,1.3954 c 0,0 -0.0018,-10e-5 -0.0018,-10e-5 -3.648456,-0.01 -6.611285,2.9493 -6.616448,6.5983 -0.0052,3.6484 2.949296,6.6117 6.597752,6.6169 0,0 0.0018,0 0.0018,0 l -0.0018,1.3954 c 0,0 -0.0018,0 -0.0018,0 -4.419828,-0.01 -7.997981,-3.5952 -7.991728,-8.0143 0.0063,-4.4191 3.594545,-7.9979 8.014375,-7.9916"
         style="fill:#a3931f;fill-opacity:1;fill-rule:nonzero;stroke:none;stroke-width:0.0604044"
         id="path1090" />
      <path
         d="m 34.15352,1932.6261 c 0,0 0.0018,10e-5 0.0018,10e-5 l -0.0032,2.2983 v 0 c -0.234963,0 -0.424902,0.1903 -0.425235,0.4247 -3e-4,0.2343 0.189072,0.4249 0.424032,0.4252 v 0 l -9e-4,0.7091 c 0,0 -0.0018,0 -0.0018,0 -1.51797,0 -2.751369,1.2278 -2.753514,2.7463 -0.0021,1.518 1.227762,2.7514 2.745735,2.7535 0,0 0.0018,0 0.0018,0 l -9e-4,0.7098 c 0,0 -0.0018,0 -0.0018,0 -0.234372,0 -0.424899,0.1896 -0.425232,0.424 -3e-4,0.2344 0.18966,0.4249 0.424029,0.4252 0,0 0.0018,0 0.0018,0 l -0.0032,2.299 c 0,0 -0.0018,0 -0.0018,0 -3.648456,-0.01 -6.602915,-2.9685 -6.597753,-6.6169 0.0052,-3.649 2.967993,-6.6034 6.616449,-6.5983 m -2.286387,3.8862 c 0.08637,2e-4 0.173388,-0.026 0.248973,-0.081 0.189867,-0.1374 0.232542,-0.4031 0.09508,-0.593 -0.0832,-0.1149 -0.212373,-0.1755 -0.343467,-0.1757 -0.08698,-1e-4 -0.174,0.026 -0.249582,0.081 -0.189867,0.1374 -0.232521,0.4031 -0.09507,0.593 0.0832,0.1148 0.212373,0.1754 0.344058,0.1756 m -1.41441,1.94 c 0.178785,3e-4 0.345666,-0.1137 0.40452,-0.293 0.0722,-0.2228 -0.04948,-0.4627 -0.272274,-0.5355 -0.04348,-0.014 -0.08815,-0.021 -0.131655,-0.021 -0.178803,-3e-4 -0.345684,0.1136 -0.403926,0.2929 -0.07279,0.2228 0.04889,0.4628 0.271683,0.5356 0.04346,0.014 0.08815,0.021 0.131652,0.021 m -0.0034,2.4004 c 0.0435,10e-5 0.0876,-0.01 0.1311,-0.02 0.222999,-0.073 0.345969,-0.3124 0.273789,-0.5354 -0.05832,-0.1795 -0.22488,-0.2939 -0.403686,-0.2941 -0.0435,-10e-5 -0.08819,0.01 -0.131712,0.021 -0.222999,0.072 -0.345357,0.3118 -0.273177,0.5347 0.05832,0.1795 0.224883,0.2939 0.403686,0.2942 m 1.407711,1.944 c 0.131076,10e-5 0.261033,-0.06 0.343944,-0.1747 0.137994,-0.1895 0.0967,-0.4547 -0.09339,-0.5933 -0.07482,-0.054 -0.162372,-0.081 -0.248763,-0.081 -0.131682,-2e-4 -0.26103,0.061 -0.34455,0.1747 -0.137997,0.1894 -0.09607,0.4553 0.09341,0.5933 0.07543,0.055 0.162372,0.081 0.249351,0.081"
         style="fill:#98771f;fill-opacity:1;fill-rule:nonzero;stroke:none;stroke-width:0.0604044"
         id="path1092" />
      <path
         d="m 34.14806,1936.4835 c 0,0 0.0018,0 0.0018,0 l -0.0078,5.4998 c 0,0 -0.0018,0 -0.0018,0 -1.517973,0 -2.747886,-1.2355 -2.745735,-2.7535 0.0021,-1.5185 1.235544,-2.7484 2.753514,-2.7463"
         style="fill:#a3931f;fill-opacity:1;fill-rule:nonzero;stroke:none;stroke-width:0.0604044"
         id="path1094" />
      <path
         d="m 34.139276,1942.6931 c 0,0 0.0018,0 0.0018,0 l -0.0012,0.8492 c 0,0 -0.0018,0 -0.0018,0 -0.234369,0 -0.424362,-0.1908 -0.424029,-0.4252 3e-4,-0.2344 0.190863,-0.4244 0.425232,-0.424"
         style="fill:#a3931f;fill-opacity:1;fill-rule:nonzero;stroke:none;stroke-width:0.0604044"
         id="path1096" />
      <path
         d="m 34.15208,1934.9245 v 0 l -0.0012,0.8499 v 0 c -0.23496,0 -0.424362,-0.1909 -0.424029,-0.4252 3e-4,-0.2344 0.190275,-0.425 0.425235,-0.4247"
         style="fill:#a3931f;fill-opacity:1;fill-rule:nonzero;stroke:none;stroke-width:0.0604044"
         id="path1098" />
      <path
         d="m 31.867721,1935.663 c 0.131097,2e-4 0.260271,0.061 0.34347,0.1757 0.137454,0.1899 0.09478,0.4556 -0.09508,0.593 -0.07559,0.054 -0.162603,0.081 -0.248976,0.081 -0.131682,-2e-4 -0.260856,-0.061 -0.344055,-0.1756 -0.137457,-0.1899 -0.0948,-0.4556 0.09507,-0.593 0.07558,-0.054 0.1626,-0.081 0.249579,-0.081"
         style="fill:#a3931f;fill-opacity:1;fill-rule:nonzero;stroke:none;stroke-width:0.0604044"
         id="path1100" />
      <path
         d="m 30.453314,1937.6025 c 0.0435,0 0.08817,0.01 0.131655,0.021 0.222792,0.073 0.344472,0.3128 0.272274,0.5355 -0.05885,0.1794 -0.225735,0.2933 -0.40452,0.293 -0.0435,0 -0.08819,-0.01 -0.131652,-0.021 -0.222795,-0.073 -0.344471,-0.3128 -0.271683,-0.5355 0.05824,-0.1793 0.225123,-0.2933 0.403926,-0.293"
         style="fill:#a3931f;fill-opacity:1;fill-rule:nonzero;stroke:none;stroke-width:0.0604044"
         id="path1102" />
      <path
         d="m 30.449918,1940.0029 c 0.178809,2e-4 0.345363,0.1146 0.403686,0.2941 0.07218,0.223 -0.05079,0.4627 -0.273786,0.5354 -0.0435,0.014 -0.0876,0.02 -0.1311,0.02 -0.178806,-2e-4 -0.345366,-0.1146 -0.403686,-0.2941 -0.07218,-0.223 0.05017,-0.4626 0.273177,-0.5348 0.04352,-0.014 0.08821,-0.021 0.131709,-0.021"
         style="fill:#a3931f;fill-opacity:1;fill-rule:nonzero;stroke:none;stroke-width:0.0604044"
         id="path1104" />
      <path
         d="m 31.858223,1941.9474 c 0.08639,2e-4 0.173946,0.027 0.248763,0.081 0.190086,0.1386 0.231378,0.4039 0.09339,0.5934 -0.08291,0.1146 -0.212868,0.1748 -0.343944,0.1746 -0.08698,-10e-5 -0.173925,-0.026 -0.249354,-0.081 -0.189474,-0.138 -0.231396,-0.4039 -0.0934,-0.5933 0.08352,-0.1141 0.212868,-0.1749 0.344553,-0.1748"
         style="fill:#a3931f;fill-opacity:1;fill-rule:nonzero;stroke:none;stroke-width:0.0604044"
         id="path1106" />
    </g>
    <g
       id="g2"
       transform="translate(0,-2.7737008)">
      <path
         style="font-weight:bold;font-size:57.648px;font-family:Calibri;-inkscape-font-specification:'Calibri, Bold';fill:#333333;stroke-width:1.58892"
         d="m 424.74902,1859.5086 q 1.05508,-3.1656 1.31895,-5.0117 0.26332,-1.8462 -0.70388,-2.8133 -0.96732,-0.8749 -3.42929,-1.0557 -2.46203,-0.2613 -6.77063,-0.2613 -4.48439,0 -7.0343,0.1776 -2.46207,0.1038 -3.78098,0.4371 -1.31895,0.4373 -1.84658,1.1433 -0.5279,0.7079 -0.87983,1.8462 l -7.64991,22.8606 h -42.73389 l -7.21027,-22.2452 q -0.35193,-1.2311 -0.96734,-2.1108 -0.5279,-0.7913 -1.84643,-1.3193 -1.23108,-0.4373 -3.60516,-0.6145 -2.28618,-0.1753 -6.06716,-0.1753 -4.04478,0 -6.33094,0.2614 -2.28618,0.2613 -3.16553,1.2312 -0.87881,1.0555 -0.61536,2.9016 0.26332,1.8462 1.31895,4.9243 l 35.08402,100.9411 q 0.52788,1.4951 1.23108,2.3751 0.70388,0.9683 2.19818,1.4058 1.58268,0.5312 4.30861,0.6145 2.7258,0.1776 7.21014,0.1776 5.18798,0 8.26549,-0.1776 3.07753,-0.1038 4.74823,-0.6145 1.75856,-0.4375 2.46194,-1.4058 0.79135,-0.9683 1.31895,-2.6385 z m -52.23035,83.4439 h -0.0833 l -16.09114,-48.3598 h 32.27022 z m 137.52226,-16.0905 q 0,-4.221 -0.96735,-6.2433 -0.96729,-2.0222 -2.37412,-2.0222 h -9.2326 q 1.93445,-2.1105 2.72581,-4.8364 0.87879,-2.6377 0.87879,-5.5384 0,-6.859 -2.28616,-12.2224 -2.28618,-5.276 -6.59467,-8.9693 -4.22072,-3.6049 -10.28781,-5.5396 -5.97917,-1.8459 -13.36531,-1.8459 -3.78103,0 -7.21031,0.8746 -3.42923,0.9683 -5.27579,2.1979 -1.05513,-1.1422 -1.93447,-2.7249 -0.79133,-1.5826 -0.79133,-3.5173 0,-2.5501 2.19827,-4.2203 2.28616,-1.5827 6.33094,-1.7585 l 19.08077,-0.7083 q 6.68266,-0.2614 11.87052,-1.9348 5.27581,-1.5813 8.79295,-4.5718 3.60515,-2.9011 5.45173,-7.0338 1.93441,-4.1328 1.93441,-9.4088 0,-5.8028 -2.55001,-10.9028 -2.54995,-5.1875 -7.64989,-8.9684 -5.09984,-3.7818 -12.83773,-5.9801 -7.64989,-2.198 -17.93766,-2.198 -10.02395,0 -17.14636,1.5828 -7.03436,1.5825 -11.60674,4.3974 -4.48437,2.8131 -6.59467,6.7702 -2.02243,3.8681 -2.02243,8.5287 0,2.9021 0.70387,5.5396 0.79135,2.6373 2.19832,5.1 1.49478,2.3739 3.60511,4.5721 2.1103,2.1983 4.83611,4.22 -3.78098,2.0233 -5.89129,5.4522 -2.02233,3.5173 -2.02233,7.6502 0,5.1874 2.37406,9.4077 2.37403,4.3086 6.15506,7.7377 -3.07755,3.0777 -4.92411,7.3865 -1.84646,4.3077 -1.84646,10.7271 0,6.8576 2.37409,12.221 2.46203,5.452 6.77061,9.1452 4.30851,3.7809 10.28782,5.7156 5.97919,2.0222 13.18945,2.0222 3.69301,0 7.0343,-0.4376 3.42928,-0.4373 6.33103,-1.2314 h 24.88411 q 1.49482,0 2.37412,-1.9339 0.96735,-1.9345 0.96735,-6.5065 z m -28.40134,-18.5532 q 0,6.3311 -3.51716,9.8483 -3.51725,3.5175 -9.93616,3.5175 -3.25341,0 -5.71532,-1.1434 -2.46206,-1.0557 -4.13276,-2.9893 -1.5827,-1.8473 -2.37406,-4.3974 -0.79133,-2.4618 -0.79133,-5.1876 0,-5.9786 3.51714,-9.4963 3.51716,-3.4285 9.76017,-3.4285 3.34141,0 5.80346,1.0548 2.46194,1.0555 4.04471,2.9017 1.67063,1.8461 2.46208,4.2202 0.87879,2.4627 0.87879,5.1 z m 5.18784,-62.6054 q 0,3.9571 -3.16541,6.0676 -3.16553,2.1107 -8.70507,2.2863 l -15.73939,0.4375 q -2.2862,-1.6699 -3.69315,-3.2536 -1.31895,-1.4944 -2.19818,-2.9012 -0.79135,-1.4067 -1.0552,-2.7259 -0.26329,-1.3193 -0.26329,-2.7258 0,-4.3965 4.39646,-6.683 4.48446,-2.2856 12.57398,-2.2856 5.01198,0 8.44124,1.0548 3.42923,0.9683 5.53956,2.6385 2.11031,1.6704 2.98966,3.7809 0.87985,2.0221 0.87985,4.3077 z m 88.28156,79.3115 q 0,-3.1655 -0.17622,-5.1876 -0.17599,-2.0222 -0.52788,-3.1653 -0.35198,-1.1434 -0.96734,-1.5828 -0.52792,-0.4373 -1.40688,-0.4373 -0.70387,0 -1.58268,0.2614 -0.87986,0.354 -2.02243,0.7078 -1.05517,0.3541 -2.37406,0.6145 -1.31895,0.3541 -2.90175,0.3541 -1.84648,0 -3.69301,-0.7916 -1.84657,-0.6973 -3.86891,-2.2854 -1.93445,-1.5825 -4.13273,-4.2212 -2.11033,-2.6375 -4.57233,-6.507 v -48.8877 q 0,-0.8749 -0.52795,-1.5827 -0.5279,-0.6145 -1.84655,-1.0548 -1.23098,-0.4371 -3.34126,-0.6143 -2.11033,-0.2613 -5.36372,-0.2613 -3.2534,0 -5.36371,0.2613 -2.1103,0.1753 -3.42928,0.6143 -1.23109,0.4373 -1.75867,1.0548 -0.52792,0.7078 -0.52792,1.5827 v 78.4323 q 0,0.8746 0.43944,1.4944 0.4394,0.7079 1.58278,1.1431 1.14312,0.4376 2.90168,0.6145 1.84657,0.2613 4.57233,0.2613 2.81378,0 4.66026,-0.2613 1.84656,-0.1753 2.81378,-0.6145 1.05518,-0.4371 1.49483,-1.1431 0.4394,-0.6145 0.4394,-1.4944 v -9.7595 q 3.07751,4.3963 5.80331,7.2093 2.7259,2.9012 5.18796,4.5725 2.46205,1.6709 4.92396,2.2865 2.46208,0.6975 4.92409,0.6975 1.1431,0 2.46207,-0.1753 1.31898,-0.1061 2.72581,-0.4371 1.40693,-0.2613 2.46201,-0.7078 1.05524,-0.3541 1.49483,-0.7916 0.52794,-0.4371 0.70388,-0.9683 0.26332,-0.5308 0.4394,-1.4944 0.17622,-0.8851 0.26463,-2.7259 0.0833,-1.8462 0.0833,-5.0115 z m 90.74352,-31.1264 q 0,-10.024 -2.63791,-18.2886 -2.63781,-8.2652 -8.00152,-14.244 -5.36381,-5.98 -13.4533,-9.2329 -8.0895,-3.2541 -18.90489,-3.2541 -10.4637,0 -18.20156,2.9021 -7.73777,2.9021 -12.83773,8.4413 -5.09996,5.5394 -7.5619,13.6291 -2.46205,8.0896 -2.46205,18.4646 0,10.0238 2.63781,18.2898 2.7259,8.3529 8.08964,14.2431 5.36366,5.9798 13.36533,9.2327 8.08947,3.2541 18.90486,3.2541 10.55158,0 18.28944,-2.9019 7.73777,-2.8135 12.74985,-8.3529 5.09984,-5.5397 7.56192,-13.6292 2.46201,-8.0895 2.46201,-18.5532 z m -22.77378,-0.8746 q 0,5.8033 -0.96734,10.6387 -0.87986,4.924 -3.07751,8.5299 -2.1983,3.6046 -5.89131,5.627 -3.60514,2.0222 -9.14472,2.0222 -4.92409,0 -8.6171,-1.8462 -3.6931,-1.759 -6.06718,-5.2762 -2.37415,-3.4287 -3.60516,-8.353 -1.14305,-4.8354 -1.14305,-11.079 0,-5.8035 0.96732,-10.727 0.96732,-4.8364 3.07751,-8.4413 2.19832,-3.6049 5.89133,-5.6271 3.69299,-1.9345 9.14472,-1.9345 5.01196,0 8.70507,1.7588 3.69301,1.8461 6.06707,5.2748 2.37417,3.4299 3.51725,8.2658 1.1431,4.9237 1.1431,11.1671 z m 120.28795,-24.8881 q 0,-2.1981 -0.17599,-3.7809 -0.0833,-1.4946 -0.35198,-2.6382 -0.26331,-1.055 -0.70388,-1.8462 -0.4394,-0.7913 -1.40684,-1.8461 -0.96732,-0.9683 -3.78098,-2.5501 -2.72581,-1.5826 -6.77057,-3.0779 -3.95685,-1.4068 -9.14471,-2.3739 -5.09994,-0.9685 -11.07913,-0.9685 -11.69476,0 -21.10321,3.6056 -9.40845,3.6053 -16.00321,10.727 -6.59472,7.2098 -10.11197,17.9378 -3.51716,10.7271 -3.51716,24.9716 0,14.5077 3.86891,25.7627 3.86888,11.2546 10.81539,18.9038 6.94642,7.6501 16.61874,11.6068 9.76019,3.9569 21.45484,3.9569 4.74819,0 9.14468,-0.7912 4.3965,-0.7916 8.08961,-2.1098 3.78089,-1.2317 6.77054,-2.9021 2.98968,-1.6699 4.13276,-2.9021 1.23098,-1.142 1.67056,-1.9343 0.43944,-0.7916 0.70389,-2.0221 0.26463,-1.2308 0.35198,-2.9021 0.17622,-1.6702 0.17622,-4.1317 0,-2.6385 -0.17622,-4.4844 -0.17599,-1.8464 -0.61539,-2.9897 -0.43942,-1.1434 -1.05511,-1.6714 -0.61538,-0.5307 -1.40697,-0.5307 -1.31893,0 -3.34126,1.4942 -2.0224,1.5825 -5.27581,3.4296 -3.16541,1.9338 -7.64991,3.4289 -4.39649,1.583 -10.55155,1.583 -6.77062,0 -12.13435,-2.8136 -5.27572,-2.7263 -9.0567,-7.9135 -3.69313,-5.1004 -5.62756,-12.3984 -1.93445,-7.2981 -1.93445,-16.4424 0,-10.024 2.02242,-17.4098 2.11031,-7.2982 5.89131,-12.0462 3.86891,-4.748 9.23258,-7.1224 5.45173,-2.2862 12.22225,-2.2862 6.15506,0 10.63954,1.4074 4.48434,1.4944 7.64989,3.2532 3.25341,1.7587 5.27584,3.1655 2.11025,1.4068 3.25336,1.4068 0.87985,0 1.40687,-0.3543 0.52788,-0.3541 0.87981,-1.4066 0.35198,-1.055 0.52797,-2.9897 0.17599,-1.8462 0.17599,-5.0114 z m 94.61248,25.7627 q 0,-10.024 -2.63789,-18.2886 -2.63792,-8.2652 -8.00163,-14.244 -5.36369,-5.98 -13.45321,-9.2329 -8.08959,-3.2541 -18.90499,-3.2541 -10.46357,0 -18.20146,2.9021 -7.73775,2.9021 -12.83773,8.4413 -5.09993,5.5394 -7.56199,13.6291 -2.46205,8.0896 -2.46205,18.4646 0,10.0238 2.63793,18.2898 2.7259,8.3529 8.08952,14.2431 5.36378,5.9798 13.36542,9.2327 8.08947,3.2541 18.90491,3.2541 10.55153,0 18.2893,-2.9019 7.73786,-2.8135 12.74982,-8.3529 5.09996,-5.5397 7.56204,-13.6292 2.46201,-8.0895 2.46201,-18.5532 z m -22.77387,-0.8746 q 0,5.8033 -0.96732,10.6387 -0.87884,4.924 -3.07756,8.5299 -2.19818,3.6046 -5.89129,5.627 -3.60503,2.0222 -9.14471,2.0222 -4.92399,0 -8.6171,-1.8462 -3.69301,-1.759 -6.06718,-5.2762 -2.37406,-3.4287 -3.60502,-8.353 -1.1431,-4.8354 -1.1431,-11.079 0,-5.8035 0.96732,-10.727 0.96732,-4.8364 3.07755,-8.4413 2.19819,-3.6049 5.89129,-5.6271 3.69301,-1.9345 9.14472,-1.9345 5.01196,0 8.70497,1.7588 3.69311,1.8461 6.06719,5.2748 2.37415,3.4299 3.51716,8.2658 1.14308,4.9237 1.14308,11.1671 z m 165.04441,-39.128 q 0,-0.8749 -0.5279,-1.5828 -0.528,-0.6144 -1.7587,-1.0559 -1.231,-0.4373 -3.3413,-0.6142 -2.1103,-0.2614 -5.3637,-0.2614 -3.3414,0 -5.4517,0.2614 -2.1103,0.1753 -3.4293,0.6142 -1.231,0.4373 -1.7586,1.0559 -0.4394,0.6975 -0.4394,1.5828 v 46.5136 q 0,3.9568 -0.7913,7.2098 -0.7039,3.254 -2.2862,5.5396 -1.4948,2.3741 -3.8689,3.6056 -2.2862,1.3182 -5.5395,1.3182 -3.9569,0 -8.00168,-3.0767 -4.04474,-3.0781 -8.79297,-8.9695 v -52.1406 q 0,-0.8749 -0.5279,-1.5828 -0.52792,-0.6144 -1.84658,-1.0559 -1.23098,-0.4373 -3.34128,-0.6142 -2.11042,-0.2614 -5.27583,-0.2614 -3.25341,0 -5.36369,0.2614 -2.11033,0.1753 -3.42926,0.6142 -1.23098,0.4373 -1.75858,1.0559 -0.52792,0.6975 -0.52792,1.5828 v 46.5136 q 0,3.9568 -0.79133,7.2098 -0.70391,3.254 -2.1983,5.5396 -1.49474,2.3741 -3.86891,3.6056 -2.37404,1.3182 -5.53959,1.3182 -4.04473,0 -8.08949,-3.0767 -4.04485,-3.0781 -8.70507,-8.9695 v -52.1406 q 0,-0.8749 -0.52794,-1.5828 -0.5279,-0.6144 -1.84644,-1.0559 -1.23107,-0.4373 -3.3414,-0.6142 -2.11031,-0.2614 -5.36367,-0.2614 -3.2534,0 -5.36373,0.2614 -2.11031,0.1753 -3.42926,0.6142 -1.2311,0.4373 -1.75858,1.0559 -0.5279,0.6975 -0.5279,1.5828 v 78.4313 q 0,0.8747 0.4394,1.4954 0.43939,0.7078 1.5827,1.1431 1.14306,0.4375 2.90168,0.6144 1.84656,0.2614 4.57234,0.2614 2.81376,0 4.66033,-0.2614 1.84644,-0.1776 2.81369,-0.6144 1.0552,-0.4371 1.49482,-1.1431 0.4394,-0.6145 0.4394,-1.4954 v -9.0557 q 6.50679,7.0336 12.9257,10.5511 6.50684,3.5172 13.54118,3.5172 4.83614,0 8.70504,-1.0562 3.86896,-0.9682 6.8585,-2.9004 3.07758,-1.8471 5.27585,-4.4851 2.19819,-2.6373 3.69299,-5.8912 3.51725,3.7809 6.85854,6.507 3.42926,2.7259 6.68264,4.3958 3.3414,1.759 6.5948,2.5502 3.3413,0.8852 6.7706,0.8852 7.8257,0 13.1894,-2.6384 5.3639,-2.638 8.6172,-7.2098 3.3413,-4.4847 4.7483,-10.5511 1.4068,-6.0672 1.4068,-12.8376 z m 146.491,0 q 0,-0.8749 -0.5279,-1.5828 -0.5279,-0.6144 -1.7586,-1.0559 -1.231,-0.4373 -3.3413,-0.6142 -2.1103,-0.2614 -5.3637,-0.2614 -3.3414,0 -5.4517,0.2614 -2.1103,0.1753 -3.4292,0.6142 -1.231,0.4373 -1.7587,1.0559 -0.4394,0.6975 -0.4394,1.5828 v 46.5136 q 0,3.9568 -0.7913,7.2098 -0.7039,3.254 -2.2862,5.5396 -1.4948,2.3741 -3.8688,3.6056 -2.2862,1.3182 -5.5396,1.3182 -3.9569,0 -8.0016,-3.0767 -4.0449,-3.0781 -8.793,-8.9695 v -52.1406 q 0,-0.8749 -0.528,-1.5828 -0.5279,-0.6144 -1.8465,-1.0559 -1.2311,-0.4373 -3.3414,-0.6142 -2.1103,-0.2614 -5.2757,-0.2614 -3.2534,0 -5.3637,0.2614 -2.1103,0.1753 -3.4293,0.6142 -1.2311,0.4373 -1.7587,1.0559 -0.5279,0.6975 -0.5279,1.5828 v 46.5136 q 0,3.9568 -0.7913,7.2098 -0.7029,3.254 -2.1982,5.5396 -1.4948,2.3741 -3.8689,3.6056 -2.3742,1.3182 -5.5396,1.3182 -4.0447,0 -8.0896,-3.0767 -4.0447,-3.0781 -8.705,-8.9695 v -52.1406 q 0,-0.8749 -0.5279,-1.5828 -0.5279,-0.6144 -1.8466,-1.0559 -1.231,-0.4373 -3.3412,-0.6142 -2.1103,-0.2614 -5.3637,-0.2614 -3.2535,0 -5.3639,0.2614 -2.1102,0.1753 -3.4292,0.6142 -1.2309,0.4373 -1.7586,1.0559 -0.5279,0.6975 -0.5279,1.5828 v 78.4313 q 0,0.8747 0.4394,1.4954 0.4394,0.7078 1.5827,1.1431 1.1431,0.4375 2.9018,0.6144 1.8464,0.2614 4.5722,0.2614 2.8138,0 4.6604,-0.2614 1.8464,-0.1776 2.8137,-0.6144 1.0551,-0.4371 1.4948,-1.1431 0.4394,-0.6145 0.4394,-1.4954 v -9.0557 q 6.5068,7.0336 12.9257,10.5511 6.5068,3.5172 13.5412,3.5172 4.8361,0 8.7051,-1.0562 3.8689,-0.9682 6.8585,-2.9004 3.0776,-1.8471 5.2758,-4.4851 2.1982,-2.6373 3.6931,-5.8912 3.5171,3.7809 6.8585,6.507 3.4292,2.7259 6.6827,4.3958 3.3412,1.759 6.5946,2.5502 3.3413,0.8852 6.7706,0.8852 7.8257,0 13.1895,-2.6384 5.3637,-2.638 8.6171,-7.2098 3.3413,-4.4847 4.7483,-10.5511 1.4068,-6.0672 1.4068,-12.8376 z"
         id="text7803"
         aria-label="AgroComm" />
      <text
         xml:space="preserve"
         style="font-style:normal;font-variant:normal;font-weight:normal;font-stretch:normal;font-size:90px;font-family:Calibri;-inkscape-font-specification:'Calibri, Normal';font-variant-ligatures:normal;font-variant-caps:normal;font-variant-numeric:normal;font-variant-east-asian:normal;writing-mode:lr-tb;direction:ltr;fill:#333333;fill-opacity:1;stroke-width:0.75"
         x="396.70901"
         y="-1755.0715"
         id="text1"
         transform="scale(1,-1)"><tspan
           sodipodi:role="line"
           id="tspan1"
           style="font-style:normal;font-variant:normal;font-weight:normal;font-stretch:normal;font-size:90px;font-family:Calibri;-inkscape-font-specification:'Calibri, Normal';font-variant-ligatures:normal;font-variant-caps:normal;font-variant-numeric:normal;font-variant-east-asian:normal;fill:#333333;fill-opacity:1;stroke-width:0.75"
           x="396.70901"
           y="-1755.0715">agrocomm.com.br</tspan></text>
    </g>
  </g>
</svg>
